<svg width="95" height="86" viewBox="0 0 95 86" fill="none" xmlns="http://www.w3.org/2000/svg">
<path d="M0 0H62.7135C80.2063 0 94.387 14.2606 94.387 31.8519V54.1482C94.387 71.7394 80.2063 86 62.7135 86H31.6735C14.1807 86 0 71.7394 0 54.1482V0Z" fill="black"/>
<path d="M42.1435 26.2034V24.6116C42.1435 23.0681 42.9494 22.2963 44.5611 22.2963H50.1072C51.6241 22.2963 52.3826 23.0681 52.3826 24.6116V26.2034C52.3826 31.6059 50.7709 37.5872 47.5475 44.1473C47.6423 44.1473 47.9741 43.8097 48.5429 43.1343C49.1118 42.459 49.8228 41.7355 50.6761 40.9637C51.5293 40.0955 52.5248 39.179 53.6625 38.2142C56.4118 35.9954 59.3982 34.4036 62.6217 33.4389L64.3282 32.86C65.7503 32.4741 66.6983 33.0047 67.1724 34.4518L68.8789 39.806C69.3529 41.4461 68.8315 42.459 67.3146 42.8449C61.9106 44.8708 55.3216 45.305 47.5475 44.1473C47.8319 44.1473 49.2066 44.8226 51.6715 46.1732C56.9807 49.3568 60.8203 52.9263 63.1905 56.8817C64.2334 58.1358 64.0912 59.197 62.7639 60.0653L58.2132 63.3936C56.7911 64.1653 55.7008 63.9724 54.9424 62.8147C51.3397 58.5699 48.8747 52.3475 47.5475 44.1473C46.5046 51.8651 44.5137 57.7982 41.5747 61.9465L40.5792 63.3936C39.7259 64.5512 38.6357 64.6477 37.3084 63.683L32.8999 60.3547C31.383 59.4864 31.1934 58.377 32.331 57.0264C35.6493 52.0098 40.7214 47.7168 47.5475 44.1473C39.5837 45.5944 33.4687 45.5462 29.2024 44.0026L27.4959 43.4238C26.0738 42.8449 25.6472 41.832 26.216 40.3849L27.9226 34.8859C28.3966 33.3424 29.392 32.9083 30.9089 33.5836C36.3129 34.8377 41.8591 38.359 47.5475 44.1473C43.9448 36.8154 42.1435 30.8341 42.1435 26.2034Z" fill="#C2EC5B"/>
</svg>
