<svg width="57" height="52" viewBox="0 0 57 52" fill="none" xmlns="http://www.w3.org/2000/svg">
<mask id="path-1-outside-1_994_1076" maskUnits="userSpaceOnUse" x="0.212891" y="0.536621" width="57" height="52" fill="black">
<rect fill="white" x="0.212891" y="0.536621" width="57" height="52"/>
<path d="M1.21289 1.53662H37.104C47.1152 1.53662 55.2309 9.69799 55.2309 19.7656V32.5258C55.2309 42.5934 47.1152 50.7547 37.104 50.7547H19.3397C9.32855 50.7547 1.21289 42.5934 1.21289 32.5258V1.53662Z"/>
<path d="M25.3318 16.5329V15.6219C25.3318 14.7386 25.793 14.2969 26.7153 14.2969H29.8894C30.7576 14.2969 31.1916 14.7386 31.1916 15.6219V16.5329C31.1916 19.6248 30.2692 23.0479 28.4245 26.8023C28.4787 26.8023 28.6686 26.609 28.9942 26.2226C29.3197 25.8361 29.7267 25.422 30.215 24.9803C30.7033 24.4834 31.273 23.9589 31.9241 23.4068C33.4976 22.1369 35.2067 21.2259 37.0515 20.6738L38.0281 20.3425C38.842 20.1217 39.3846 20.4254 39.6559 21.2535L40.6325 24.3178C40.9038 25.2564 40.6054 25.8361 39.7373 26.0569C36.6446 27.2164 32.8736 27.4648 28.4245 26.8023C28.5872 26.8023 29.374 27.1888 30.7847 27.9617C33.8231 29.7837 36.0206 31.8265 37.377 34.0902C37.9739 34.808 37.8925 35.4153 37.1329 35.9122L34.5285 37.817C33.7146 38.2587 33.0907 38.1483 32.6566 37.4857C30.5948 35.0564 29.1841 31.4953 28.4245 26.8023C27.8276 31.2192 26.6882 34.6147 25.0062 36.9888L24.4365 37.817C23.9482 38.4795 23.3242 38.5347 22.5646 37.9826L20.0416 36.0778C19.1735 35.5809 19.065 34.946 19.7161 34.173C21.6151 31.302 24.5179 28.8451 28.4245 26.8023C23.8668 27.6305 20.3672 27.6029 17.9255 26.7195L16.9489 26.3882C16.135 26.0569 15.8909 25.4772 16.2164 24.649L17.1931 21.502C17.4644 20.6186 18.0341 20.3701 18.9022 20.7566C21.9949 21.4744 25.169 23.4896 28.4245 26.8023C26.3627 22.6062 25.3318 19.1831 25.3318 16.5329Z"/>
</mask>
<path d="M1.21289 1.53662H37.104C47.1152 1.53662 55.2309 9.69799 55.2309 19.7656V32.5258C55.2309 42.5934 47.1152 50.7547 37.104 50.7547H19.3397C9.32855 50.7547 1.21289 42.5934 1.21289 32.5258V1.53662Z" fill="black"/>
<path d="M25.3318 16.5329V15.6219C25.3318 14.7386 25.793 14.2969 26.7153 14.2969H29.8894C30.7576 14.2969 31.1916 14.7386 31.1916 15.6219V16.5329C31.1916 19.6248 30.2692 23.0479 28.4245 26.8023C28.4787 26.8023 28.6686 26.609 28.9942 26.2226C29.3197 25.8361 29.7267 25.422 30.215 24.9803C30.7033 24.4834 31.273 23.9589 31.9241 23.4068C33.4976 22.1369 35.2067 21.2259 37.0515 20.6738L38.0281 20.3425C38.842 20.1217 39.3846 20.4254 39.6559 21.2535L40.6325 24.3178C40.9038 25.2564 40.6054 25.8361 39.7373 26.0569C36.6446 27.2164 32.8736 27.4648 28.4245 26.8023C28.5872 26.8023 29.374 27.1888 30.7847 27.9617C33.8231 29.7837 36.0206 31.8265 37.377 34.0902C37.9739 34.808 37.8925 35.4153 37.1329 35.9122L34.5285 37.817C33.7146 38.2587 33.0907 38.1483 32.6566 37.4857C30.5948 35.0564 29.1841 31.4953 28.4245 26.8023C27.8276 31.2192 26.6882 34.6147 25.0062 36.9888L24.4365 37.817C23.9482 38.4795 23.3242 38.5347 22.5646 37.9826L20.0416 36.0778C19.1735 35.5809 19.065 34.946 19.7161 34.173C21.6151 31.302 24.5179 28.8451 28.4245 26.8023C23.8668 27.6305 20.3672 27.6029 17.9255 26.7195L16.9489 26.3882C16.135 26.0569 15.8909 25.4772 16.2164 24.649L17.1931 21.502C17.4644 20.6186 18.0341 20.3701 18.9022 20.7566C21.9949 21.4744 25.169 23.4896 28.4245 26.8023C26.3627 22.6062 25.3318 19.1831 25.3318 16.5329Z" fill="#C2EC5B"/>
<path d="M1.21289 1.53662V0.536621H0.212891V1.53662H1.21289ZM28.9942 26.2226L29.759 26.8668V26.8668L28.9942 26.2226ZM30.215 24.9803L30.8858 25.7219L30.9076 25.7022L30.9282 25.6812L30.215 24.9803ZM31.9241 23.4068L31.2961 22.6286L31.2866 22.6362L31.2774 22.6441L31.9241 23.4068ZM37.0515 20.6738L37.3382 21.6318L37.3556 21.6266L37.3727 21.6208L37.0515 20.6738ZM38.0281 20.3425L37.7663 19.3774L37.7363 19.3856L37.7069 19.3955L38.0281 20.3425ZM39.6559 21.2535L40.6087 20.9498L40.6062 20.9422L39.6559 21.2535ZM40.6325 24.3178L41.5932 24.0401L41.5894 24.027L41.5853 24.0141L40.6325 24.3178ZM39.7373 26.0569L39.4907 25.0878L39.4376 25.1013L39.3862 25.1206L39.7373 26.0569ZM30.7847 27.9617L31.299 27.1041L31.2823 27.0941L31.2652 27.0847L30.7847 27.9617ZM37.377 34.0902L36.5193 34.6042L36.5589 34.6703L36.6081 34.7296L37.377 34.0902ZM37.1329 35.9122L36.5855 35.0753L36.5636 35.0896L36.5425 35.105L37.1329 35.9122ZM34.5285 37.817L35.0055 38.6959L35.0646 38.6638L35.1188 38.6241L34.5285 37.817ZM32.6566 37.4857L33.4931 36.9377L33.4591 36.8859L33.419 36.8386L32.6566 37.4857ZM25.0062 36.9888L24.1902 36.4107L24.1823 36.4221L25.0062 36.9888ZM24.4365 37.817L25.2415 38.4103L25.2512 38.3972L25.2604 38.3837L24.4365 37.817ZM22.5646 37.9826L21.9621 38.7807L21.9693 38.7862L21.9767 38.7915L22.5646 37.9826ZM20.0416 36.0778L20.6442 35.2797L20.5935 35.2415L20.5384 35.2099L20.0416 36.0778ZM19.7161 34.173L20.4809 34.8173L20.5182 34.773L20.5501 34.7247L19.7161 34.173ZM17.9256 26.7195L18.2658 25.7791L18.2563 25.7757L18.2468 25.7725L17.9256 26.7195ZM16.9489 26.3882L16.5719 27.3144L16.5995 27.3256L16.6277 27.3352L16.9489 26.3882ZM16.2164 24.649L17.1471 25.0149L17.1606 24.9806L17.1715 24.9454L16.2164 24.649ZM17.1931 21.502L18.1481 21.7984L18.149 21.7955L17.1931 21.502ZM18.9022 20.7566L18.4955 21.6702L18.5829 21.7091L18.6761 21.7307L18.9022 20.7566ZM1.21289 2.53662H37.104V0.536621H1.21289V2.53662ZM54.2309 19.7656V32.5258H56.2309V19.7656H54.2309ZM37.104 49.7547H19.3397V51.7547H37.104V49.7547ZM2.21289 32.5258V1.53662H0.212891V32.5258H2.21289ZM19.3397 49.7547C9.88613 49.7547 2.21289 42.0464 2.21289 32.5258H0.212891C0.212891 43.1404 8.77098 51.7547 19.3397 51.7547V49.7547ZM54.2309 32.5258C54.2309 42.0464 46.5577 49.7547 37.104 49.7547V51.7547C47.6728 51.7547 56.2309 43.1404 56.2309 32.5258H54.2309ZM37.104 2.53662C46.5577 2.53662 54.2309 10.245 54.2309 19.7656H56.2309C56.2309 9.15101 47.6728 0.536621 37.104 0.536621V2.53662ZM26.3318 16.5329V15.6219H24.3318V16.5329H26.3318ZM26.3318 15.6219C26.3318 15.3457 26.4017 15.3194 26.3693 15.3504C26.3451 15.3736 26.3978 15.2969 26.7153 15.2969V13.2969C26.1106 13.2969 25.4714 13.441 24.986 13.9059C24.4925 14.3786 24.3318 15.0148 24.3318 15.6219H26.3318ZM26.7153 15.2969H29.8894V13.2969H26.7153V15.2969ZM29.8894 15.2969C30.1649 15.2969 30.1888 15.3657 30.1528 15.3291C30.12 15.2957 30.1916 15.3301 30.1916 15.6219H32.1916C32.1916 15.0304 32.0462 14.4023 31.5793 13.9272C31.1093 13.4489 30.4821 13.2969 29.8894 13.2969V15.2969ZM30.1916 15.6219V16.5329H32.1916V15.6219H30.1916ZM30.1916 16.5329C30.1916 19.4278 29.3269 22.6981 27.527 26.3613L29.322 27.2433C31.2116 23.3977 32.1916 19.8218 32.1916 16.5329H30.1916ZM28.4245 27.8023C28.6886 27.8023 28.8792 27.699 28.9317 27.6702C29.0109 27.6268 29.073 27.5804 29.1112 27.5502C29.1896 27.4882 29.2621 27.418 29.3208 27.3583C29.4429 27.2341 29.5912 27.066 29.759 26.8668L28.2294 25.5783C28.0716 25.7656 27.9622 25.8874 27.8944 25.9564C27.8581 25.9933 27.8527 25.9956 27.87 25.9819C27.8777 25.9759 27.9135 25.9476 27.9707 25.9162C28.0003 25.9 28.0496 25.8752 28.115 25.853C28.1771 25.8319 28.2855 25.8023 28.4245 25.8023V27.8023ZM29.759 26.8668C30.0483 26.5234 30.4216 26.1418 30.8858 25.7219L29.5442 24.2387C29.0318 24.7021 28.5912 25.1488 28.2294 25.5783L29.759 26.8668ZM30.9282 25.6812C31.3912 25.2101 31.9379 24.7062 32.5709 24.1695L31.2774 22.6441C30.6081 23.2116 30.0154 23.7567 29.5017 24.2794L30.9282 25.6812ZM32.5521 24.185C34.0297 22.9925 35.624 22.1449 37.3382 21.6318L36.7648 19.7158C34.7895 20.307 32.9654 21.2813 31.2961 22.6286L32.5521 24.185ZM37.3727 21.6208L38.3494 21.2895L37.7069 19.3955L36.7303 19.7268L37.3727 21.6208ZM38.29 21.3076C38.5365 21.2407 38.5857 21.2933 38.5571 21.2773C38.5349 21.2649 38.6166 21.2932 38.7056 21.5648L40.6062 20.9422C40.4239 20.3857 40.0986 19.8481 39.5339 19.532C38.9626 19.2123 38.3336 19.2235 37.7663 19.3774L38.29 21.3076ZM38.7031 21.5572L39.6797 24.6214L41.5853 24.0141L40.6087 20.9499L38.7031 21.5572ZM39.6718 24.5954C39.7712 24.9393 39.7087 25.0268 39.7231 24.9988C39.7486 24.9493 39.7554 25.0205 39.4907 25.0878L39.9838 27.0261C40.5873 26.8725 41.1774 26.5434 41.5013 25.9142C41.8141 25.3065 41.7651 24.6348 41.5932 24.0401L39.6718 24.5954ZM39.3862 25.1206C36.4996 26.2027 32.9111 26.4594 28.5718 25.8132L28.2772 27.7914C32.8361 28.4703 36.7895 28.23 40.0883 26.9933L39.3862 25.1206ZM28.4245 27.8023C28.3443 27.8023 28.2862 27.7914 28.2656 27.7873C28.2403 27.7822 28.2255 27.7776 28.2247 27.7774C28.2239 27.7772 28.2423 27.783 28.2866 27.801C28.3737 27.8365 28.5075 27.8973 28.6957 27.9897C29.069 28.1731 29.603 28.4545 30.3042 28.8387L31.2652 27.0847C30.5556 26.6959 29.991 26.3977 29.5775 26.1946C29.3723 26.0938 29.1907 26.0097 29.0405 25.9485C28.9661 25.9182 28.8853 25.8878 28.8048 25.8634C28.7478 25.8461 28.5999 25.8023 28.4245 25.8023V27.8023ZM30.2704 28.8194C33.2141 30.5845 35.2713 32.5216 36.5193 34.6042L38.2348 33.5762C36.7699 31.1315 34.4321 28.9829 31.299 27.1041L30.2704 28.8194ZM36.6081 34.7296C36.7087 34.8506 36.7502 34.931 36.7655 34.9703C36.7786 35.0039 36.767 34.9919 36.7725 34.9512C36.7781 34.9092 36.7941 34.8943 36.7799 34.9129C36.7613 34.9374 36.7078 34.9953 36.5855 35.0753L37.6803 36.749C38.1843 36.4194 38.6599 35.9245 38.7548 35.2168C38.8483 34.5188 38.53 33.9128 38.1459 33.4508L36.6081 34.7296ZM36.5425 35.105L33.9382 37.0098L35.1188 38.6241L37.7232 36.7193L36.5425 35.105ZM34.0515 36.9381C33.7547 37.0992 33.6312 37.0819 33.6244 37.0807C33.6238 37.0806 33.621 37.0814 33.6077 37.0716C33.5905 37.0591 33.549 37.0232 33.4931 36.9377L31.8201 38.0337C32.148 38.5341 32.6276 38.9354 33.2759 39.0501C33.893 39.1594 34.4884 38.9765 35.0055 38.6959L34.0515 36.9381ZM33.419 36.8386C31.5194 34.6005 30.1555 31.238 29.4116 26.6425L27.4373 26.9621C28.2127 31.7525 29.6701 35.5123 31.8942 38.1328L33.419 36.8386ZM27.4335 26.6684C26.8478 31.0028 25.7423 34.2201 24.1903 36.4107L25.8222 37.5669C27.6342 35.0093 28.8075 31.4356 29.4155 26.9362L27.4335 26.6684ZM24.1823 36.4221L23.6126 37.2502L25.2604 38.3837L25.8301 37.5556L24.1823 36.4221ZM23.6315 37.2237C23.5645 37.3146 23.5184 37.3496 23.5026 37.3598C23.4921 37.3666 23.4992 37.3605 23.5142 37.3592C23.538 37.3571 23.4315 37.3765 23.1526 37.1737L21.9767 38.7915C22.4573 39.1409 23.0426 39.4087 23.6904 39.3514C24.371 39.2912 24.8838 38.8956 25.2415 38.4103L23.6315 37.2237ZM23.1671 37.1845L20.6442 35.2797L19.4391 36.8759L21.9621 38.7807L23.1671 37.1845ZM20.5384 35.2099C20.3885 35.1241 20.3178 35.0582 20.29 35.026C20.2675 34.9998 20.2867 35.0127 20.2948 35.0605C20.3029 35.1077 20.289 35.1235 20.3033 35.0865C20.3202 35.0425 20.3669 34.9526 20.4809 34.8173L18.9512 33.5288C18.5436 34.0127 18.197 34.6579 18.3234 35.3974C18.4505 36.1411 18.9956 36.6313 19.5448 36.9457L20.5384 35.2099ZM20.5501 34.7247C22.3333 32.0289 25.0901 29.6744 28.8879 27.6884L27.9611 25.9161C23.9457 28.0158 20.8969 30.5751 18.882 33.6213L20.5501 34.7247ZM28.2457 25.8184C23.7444 26.6363 20.4567 26.5718 18.2658 25.7791L17.5853 27.6598C20.2776 28.6339 23.9892 28.6246 28.6033 27.7862L28.2457 25.8184ZM18.2468 25.7725L17.2701 25.4412L16.6277 27.3352L17.6043 27.6665L18.2468 25.7725ZM17.3259 25.462C17.0656 25.356 17.0609 25.2787 17.077 25.3168C17.0918 25.352 17.0399 25.2875 17.1471 25.0149L15.2857 24.2832C15.0674 24.8387 14.9748 25.4781 15.2338 26.0931C15.494 26.711 16.0183 27.0891 16.5719 27.3144L17.3259 25.462ZM17.1715 24.9454L18.1481 21.7984L16.238 21.2056L15.2614 24.3526L17.1715 24.9454ZM18.149 21.7955C18.1932 21.6517 18.2354 21.5815 18.2552 21.5549C18.2704 21.5343 18.2616 21.5531 18.2236 21.5697C18.1867 21.5858 18.1733 21.5776 18.2115 21.5812C18.2559 21.5855 18.3478 21.6044 18.4955 21.6702L19.3089 19.8431C18.7533 19.5957 18.076 19.4522 17.4241 19.7365C16.7631 20.0247 16.416 20.6258 16.2371 21.2084L18.149 21.7955ZM18.6761 21.7307C21.5169 22.39 24.5308 24.2669 27.7112 27.5032L29.1377 26.1014C25.8072 22.7123 22.4729 20.5587 19.1283 19.7825L18.6761 21.7307ZM29.322 26.3613C27.2836 22.2128 26.3318 18.9545 26.3318 16.5329H24.3318C24.3318 19.4116 25.4418 22.9996 27.527 27.2433L29.322 26.3613Z" fill="#C2EC5B" mask="url(#path-1-outside-1_994_1076)"/>
</svg>
