<svg width="23" height="23" viewBox="0 0 23 23" fill="none" xmlns="http://www.w3.org/2000/svg">
<path fill-rule="evenodd" clip-rule="evenodd" d="M16.5657 6.18485C16.928 6.5472 16.928 7.13469 16.5657 7.49704L7.28708 16.7756C6.92473 17.138 6.33724 17.138 5.97489 16.7756C5.61254 16.4133 5.61254 15.8258 5.97489 15.4634L15.2535 6.18485C15.6158 5.8225 16.2033 5.8225 16.5657 6.18485Z" fill="black"/>
<path fill-rule="evenodd" clip-rule="evenodd" d="M5.70312 6.84095C5.70312 6.3285 6.11854 5.91309 6.63098 5.91309H15.9096C16.422 5.91309 16.8374 6.3285 16.8374 6.84095V16.1195C16.8374 16.632 16.422 17.0474 15.9096 17.0474C15.3971 17.0474 14.9817 16.632 14.9817 16.1195V7.76881H6.63098C6.11854 7.76881 5.70312 7.35339 5.70312 6.84095Z" fill="black"/>
</svg>
