<svg width="54" height="63" viewBox="0 0 54 63" fill="none" xmlns="http://www.w3.org/2000/svg">
<path d="M32.742 37.74C32.261 37.8573 31.7768 37.9613 31.29 38.052C28.6482 38.5493 25.936 38.5391 23.298 38.022C22.836 37.932 22.182 37.773 21.339 37.548L18.576 41.139C11.757 40.92 9.165 36.351 9.165 36.351C9.165 26.208 13.608 17.985 13.608 17.985C18.051 14.586 22.278 14.679 22.278 14.679L23.487 16.254C23.5984 16.2384 23.7106 16.2284 23.823 16.224C26.1276 15.9185 28.4631 15.9286 30.765 16.254L32.091 14.679C32.091 14.679 36.321 14.586 40.761 17.988C40.761 17.988 45.207 26.208 45.207 36.351C45.207 36.351 42.582 40.917 35.763 41.139L32.742 37.737V37.74ZM21.228 27C19.425 27 18 28.35 18 30C18 31.65 19.455 33 21.228 33C23.028 33 24.453 31.65 24.453 30C24.483 28.35 23.031 27 21.228 27ZM32.772 27C30.972 27 29.547 28.35 29.547 30C29.547 31.65 31.002 33 32.772 33C34.575 33 36 31.65 36 30C36 28.35 34.575 27 32.772 27ZM54 63L39.03 48H48V6H6V48H39.009L40.719 54H6C4.4087 54 2.88258 53.3679 1.75736 52.2426C0.632141 51.1174 0 49.5913 0 48V6C0 4.4087 0.632141 2.88258 1.75736 1.75736C2.88258 0.632141 4.4087 0 6 0H48C49.5913 0 51.1174 0.632141 52.2426 1.75736C53.3679 2.88258 54 4.4087 54 6V63Z" fill="black"/>
</svg>
