<svg width="75" height="68" viewBox="0 0 75 68" fill="none" xmlns="http://www.w3.org/2000/svg">
<path d="M59.2105 28.6316L75 68H67.2667L62.9569 57.2632H48.2799L43.9773 68H36.2476L52.0335 28.6316H59.2105ZM28.7081 0V7.15789H50.2392V14.3158H43.177C40.4089 22.6264 35.9909 30.2958 30.1866 36.8667C32.775 39.1702 35.5826 41.2163 38.5694 42.976L35.8744 49.6973C32.0186 47.5162 28.4124 44.9229 25.1196 41.9632C18.709 47.7494 11.1174 52.0815 2.86722 54.6613L0.94378 47.7575C8.01257 45.5095 14.5264 41.7997 20.0598 36.8703C15.9642 32.2461 12.5529 27.0614 9.92943 21.4737H17.9677C19.9678 25.1559 22.366 28.6087 25.1196 31.7703C29.6056 26.6134 33.141 20.7053 35.5622 14.3194L0 14.3158V7.15789H21.5311V0H28.7081ZM55.622 38.9568L51.1471 50.1053H60.0897L55.622 38.9568Z" fill="black"/>
</svg>
