<svg width="83" height="82" viewBox="0 0 83 82" fill="none" xmlns="http://www.w3.org/2000/svg">
<circle cx="41.5" cy="41" r="41" fill="#EC5B5B" fill-opacity="0.3"/>
<g clip-path="url(#clip0_970_30)">
<path d="M32.2962 53.25L24.5 59.375V27C24.5 26.5359 24.6844 26.0908 25.0126 25.7626C25.3408 25.4344 25.7859 25.25 26.25 25.25H57.75C58.2141 25.25 58.6592 25.4344 58.9874 25.7626C59.3156 26.0908 59.5 26.5359 59.5 27V51.5C59.5 51.9641 59.3156 52.4093 58.9874 52.7374C58.6592 53.0656 58.2141 53.25 57.75 53.25H32.2962ZM31.0852 49.75H56V28.75H28V52.1737L31.0852 49.75ZM40.7628 41.2118L48.188 33.7882L50.6625 36.2628L40.7628 46.1625L33.9552 39.355L36.4315 36.8805L40.7628 41.2118Z" fill="#EC5B5B"/>
</g>
<defs>
<clipPath id="clip0_970_30">
<rect width="42" height="42" fill="white" transform="translate(21 20)"/>
</clipPath>
</defs>
</svg>
