<svg width="55" height="55" viewBox="0 0 55 55" fill="none" xmlns="http://www.w3.org/2000/svg">
<circle cx="27.5" cy="27.5" r="27.5" fill="#959595" fill-opacity="0.3"/>
<path fill-rule="evenodd" clip-rule="evenodd" d="M28.7753 18.7507C29.907 17.6577 31.4226 17.053 32.9958 17.0666C34.5689 17.0803 36.0738 17.7113 37.1863 18.8238C38.2987 19.9362 38.9297 21.4411 38.9434 23.0143C38.9571 24.5875 38.3523 26.1031 37.2593 27.2347L37.2472 27.2471L34.2473 30.2469C33.639 30.8554 32.907 31.326 32.1009 31.6267C31.2948 31.9274 30.4334 32.0512 29.5753 31.9897C28.7171 31.9283 27.8822 31.683 27.1272 31.2705C26.3721 30.858 25.7146 30.2879 25.1993 29.5989C24.8685 29.1567 24.9588 28.53 25.4011 28.1992C25.8433 27.8684 26.47 27.9587 26.8008 28.401C27.1444 28.8603 27.5827 29.2403 28.0861 29.5153C28.5894 29.7903 29.146 29.9539 29.7181 29.9949C30.2903 30.0358 30.8645 29.9533 31.4019 29.7528C31.9393 29.5523 32.4273 29.2386 32.8328 28.833L32.833 28.8329L35.8265 25.8393C36.5515 25.0856 36.9526 24.0777 36.9435 23.0316C36.9344 21.9829 36.5137 20.9796 35.772 20.238C35.0304 19.4963 34.0272 19.0757 32.9784 19.0666C31.9319 19.0575 30.9236 19.4589 30.1697 20.1845L28.4551 21.8891C28.0634 22.2785 27.4303 22.2767 27.0409 21.885C26.6515 21.4933 26.6534 20.8602 27.045 20.4708L28.765 18.7608L28.7753 18.7507Z" fill="black"/>
<path fill-rule="evenodd" clip-rule="evenodd" d="M23.8994 24.3733C24.7055 24.0726 25.5668 23.9487 26.425 24.0102C27.2832 24.0717 28.1181 24.317 28.8731 24.7295C29.6281 25.142 30.2856 25.712 30.801 26.401C31.1318 26.8433 31.0414 27.4699 30.5992 27.8007C30.1569 28.1316 29.5302 28.0412 29.1994 27.599C28.8559 27.1397 28.4175 26.7596 27.9142 26.4846C27.4108 26.2096 26.8542 26.0461 26.2821 26.0051C25.71 25.9641 25.1358 26.0467 24.5984 26.2471C24.061 26.4476 23.5729 26.7613 23.1674 27.167L20.1738 30.1606C19.4488 30.9144 19.0477 31.9222 19.0568 32.9683C19.0659 34.0171 19.4866 35.0203 20.2282 35.762C20.9698 36.5036 21.9731 36.9243 23.0219 36.9334C24.0679 36.9425 25.0758 36.5414 25.8296 35.8164L27.5331 34.1129C27.9236 33.7223 28.5568 33.7223 28.9473 34.1129C29.3378 34.5034 29.3378 35.1366 28.9473 35.5271L27.2373 37.2371L27.2249 37.2493C26.0933 38.3422 24.5777 38.947 23.0045 38.9333C21.4313 38.9196 19.9264 38.2886 18.814 37.1762C17.7016 36.0637 17.0705 34.5589 17.0569 32.9857C17.0432 31.4125 17.648 29.8969 18.7409 28.7653L18.7531 28.7529L21.753 25.753C21.753 25.753 21.7529 25.753 21.753 25.753C22.3612 25.1446 23.0933 24.6739 23.8994 24.3733Z" fill="black"/>
</svg>
