<svg width="44" height="44" viewBox="0 0 44 44" fill="none" xmlns="http://www.w3.org/2000/svg">
<circle cx="22" cy="22" r="22" fill="#439F6E" fill-opacity="0.3"/>
<path fill-rule="evenodd" clip-rule="evenodd" d="M25.663 13.7733C23.8902 12.9834 21.9096 12.7877 20.0166 13.2154C18.1235 13.6431 16.4194 14.6713 15.1585 16.1467C13.8975 17.622 13.1472 19.4654 13.0195 21.402C12.8918 23.3386 13.3935 25.2645 14.4499 26.8927C15.5062 28.5208 17.0605 29.7638 18.881 30.4364C20.7015 31.109 22.6907 31.1751 24.5518 30.6248C26.413 30.0745 28.0464 28.9374 29.2084 27.3829C30.3705 25.8285 30.9989 23.9401 31 21.9993V21.0799C31 20.5276 31.4477 20.0799 32 20.0799C32.5523 20.0799 33 20.5276 33 21.0799V21.9999C32.9986 24.3719 32.2306 26.6806 30.8103 28.5804C29.39 30.4803 27.3936 31.8702 25.1189 32.5427C22.8442 33.2153 20.413 33.1345 18.1879 32.3125C15.9628 31.4904 14.0631 29.9711 12.7721 27.9812C11.481 25.9913 10.8678 23.6373 11.0238 21.2704C11.1799 18.9035 12.0969 16.6504 13.6381 14.8472C15.1793 13.044 17.2621 11.7874 19.5758 11.2646C21.8896 10.7418 24.3103 10.981 26.477 11.9464C26.9815 12.1712 27.2082 12.7624 26.9834 13.2669C26.7587 13.7713 26.1675 13.9981 25.663 13.7733Z" fill="#439F6E"/>
<path fill-rule="evenodd" clip-rule="evenodd" d="M32.7068 13.2925C33.0975 13.6829 33.0978 14.316 32.7075 14.7068L22.7075 24.7168C22.52 24.9044 22.2656 25.0099 22.0002 25.01C21.7349 25.0101 21.4805 24.9047 21.2929 24.7171L18.2929 21.7171C17.9024 21.3266 17.9024 20.6934 18.2929 20.3029C18.6834 19.9124 19.3166 19.9124 19.7071 20.3029L21.9996 22.5954L31.2925 13.2932C31.6829 12.9025 32.316 12.9022 32.7068 13.2925Z" fill="#439F6E"/>
</svg>
