<svg width="18" height="21" viewBox="0 0 18 21" fill="none" xmlns="http://www.w3.org/2000/svg">
<path d="M18 16.75H3C2.73478 16.75 2.48043 16.8554 2.29289 17.0429C2.10536 17.2304 2 17.4848 2 17.75C2 18.0152 2.10536 18.2696 2.29289 18.4571C2.48043 18.6446 2.73478 18.75 3 18.75H18V20.75H3C2.20435 20.75 1.44129 20.4339 0.87868 19.8713C0.316071 19.3087 0 18.5456 0 17.75V2.75C0 2.21957 0.210714 1.71086 0.585786 1.33579C0.960859 0.960714 1.46957 0.75 2 0.75H18V16.75ZM2 14.8C2.162 14.767 2.329 14.75 2.5 14.75H16V2.75H2V14.8ZM13 7.75H5V5.75H13V7.75Z" fill="#FF7A00"/>
</svg>
