<svg width="172" height="115" viewBox="0 0 172 115" fill="none" xmlns="http://www.w3.org/2000/svg">
<g opacity="0.2">
<path d="M101.156 -121L190.21 -28.0814C215.05 -2.16347 213.936 39.2145 187.721 64.3388L154.495 96.183C128.28 121.307 86.8924 120.664 62.0524 94.7461L17.9752 48.7561C-6.86478 22.8382 -5.75038 -18.5398 20.4643 -43.6641L101.156 -121Z" fill="black"/>
<path d="M121.952 -21.1342L124.324 -23.4077C126.624 -25.6122 128.919 -25.5205 131.207 -23.1325L139.083 -14.9151C141.237 -12.6676 141.164 -10.4416 138.864 -8.23705L136.492 -5.9636C128.441 1.75234 117.239 7.90702 102.886 12.5004C103.02 12.6409 103.995 12.6503 105.809 12.5286C107.623 12.4069 109.711 12.4271 112.073 12.589C114.578 12.6132 117.357 12.7791 120.411 13.0869C127.621 13.9914 134.234 16.1427 140.249 19.5408L143.535 21.2426C146.129 22.7985 146.685 24.961 145.202 27.7301L139.646 37.9055C137.875 40.9502 135.625 41.6244 132.896 39.928C122.203 34.8148 112.2 25.6723 102.886 12.5004C103.29 12.9218 104.235 15.9231 105.723 21.5043C108.518 33.9174 108.651 44.7044 106.122 53.8653C105.734 57.2017 103.951 58.5066 100.772 57.7801L89.3502 55.7912C86.1807 54.7864 84.92 52.8955 85.5682 50.1183C86.778 38.718 92.5505 26.1787 102.886 12.5004C89.9036 21.978 78.235 27.502 67.8797 29.0722L64.3097 29.664C61.3729 30.0532 59.6809 28.5756 59.2338 25.2312L57.9336 13.9459C57.0734 10.4583 58.4574 8.59284 62.0857 8.34948C74.2733 6.10108 87.8733 7.48473 102.886 12.5004C89.4206 2.76785 80.8091 -6.36127 77.0511 -14.8869L75.4904 -18.242C74.3336 -21.1758 75.2373 -23.2546 78.2015 -24.4786L88.8194 -29.8039C91.7927 -31.3061 93.8532 -30.4512 95.0009 -27.2392C100.806 -17.4413 103.434 -4.19476 102.886 12.5004C108.696 -3.309 115.051 -14.5205 121.952 -21.1342Z" fill="#C2EC5B"/>
</g>
</svg>
