<svg width="142" height="157" viewBox="0 0 142 157" fill="none" xmlns="http://www.w3.org/2000/svg">
<g opacity="0.2">
<path d="M34.1562 0L123.21 92.9186C148.05 118.837 146.936 160.214 120.721 185.339L87.495 217.183C61.2803 242.307 19.8924 241.664 -4.94758 215.746L-49.0248 169.756C-73.8648 143.838 -72.7504 102.46 -46.5357 77.3359L34.1562 0Z" fill="black"/>
<path d="M54.952 99.8658L57.3241 97.5923C59.6244 95.3878 61.9188 95.4795 64.2074 97.8675L72.0831 106.085C74.2371 108.332 74.164 110.558 71.8638 112.763L69.4917 115.036C61.4409 122.752 50.2389 128.907 35.8856 133.5C36.0203 133.641 36.9946 133.65 38.8087 133.529C40.6228 133.407 42.7108 133.427 45.0725 133.589C47.578 133.613 50.3574 133.779 53.4105 134.087C60.6213 134.991 67.2341 137.143 73.249 140.541L76.5349 142.243C79.1293 143.798 79.6849 145.961 78.2015 148.73L72.6459 158.906C70.8751 161.95 68.6251 162.624 65.896 160.928C55.2033 155.815 45.1998 146.672 35.8856 133.5C36.2895 133.922 37.2353 136.923 38.7228 142.504C41.5177 154.917 41.6508 165.704 39.1221 174.865C38.7341 178.202 36.9508 179.507 33.7721 178.78L22.3502 176.791C19.1807 175.786 17.92 173.895 18.5682 171.118C19.778 159.718 25.5505 147.179 35.8856 133.5C22.9036 142.978 11.235 148.502 0.879741 150.072L-2.69029 150.664C-5.62709 151.053 -7.31906 149.576 -7.76618 146.231L-9.06644 134.946C-9.92659 131.458 -8.54255 129.593 -4.91435 129.349C7.27329 127.101 20.8733 128.485 35.8856 133.5C22.4206 123.768 13.8091 114.639 10.0511 106.113L8.49042 102.758C7.33362 99.8242 8.23732 97.7454 11.2015 96.5214L21.8194 91.1961C24.7927 89.6939 26.8532 90.5488 28.0009 93.7608C33.8057 103.559 36.4339 116.805 35.8856 133.5C41.6959 117.691 48.0514 106.479 54.952 99.8658Z" fill="#C2EC5B"/>
</g>
</svg>
