<svg width="667" height="215" viewBox="0 0 667 215" fill="none" xmlns="http://www.w3.org/2000/svg">
<rect x="0.5" y="0.5" width="666" height="214" rx="30.5" fill="white" stroke="#E0E0E0"/>
<rect x="49" y="25" width="93" height="86" rx="12" fill="#FF7A00"/>
<rect x="170" y="41" width="240" height="23" rx="5" fill="#E4E4E4"/>
<rect x="170" y="82" width="422" height="13" rx="5" fill="#E4E4E4"/>
<path d="M54.2464 139.216C53.4251 139.216 52.7851 139.451 52.3264 139.92C51.8784 140.379 51.5904 141.093 51.4624 142.064L50.3744 141.904C50.7158 139.451 52.0011 138.224 54.2304 138.224C55.3184 138.224 56.1451 138.464 56.7104 138.944C57.2864 139.424 57.5744 140.123 57.5744 141.04C57.5744 141.893 57.2758 142.565 56.6784 143.056C56.0918 143.536 55.2011 143.952 54.0064 144.304C52.8651 144.667 52.0971 145.035 51.7024 145.408C51.3184 145.781 51.1104 146.352 51.0784 147.12C52.2944 147.035 53.4091 146.992 54.4224 146.992H57.7344V148H50.0864C50.0758 147.84 50.0704 147.595 50.0704 147.264C50.0704 146.208 50.3264 145.413 50.8384 144.88C51.3504 144.336 52.2144 143.877 53.4304 143.504C54.5398 143.163 55.3184 142.811 55.7664 142.448C56.2144 142.075 56.4384 141.595 56.4384 141.008C56.4384 140.453 56.2571 140.016 55.8944 139.696C55.5318 139.376 54.9824 139.216 54.2464 139.216ZM59.3748 146.096H60.5108L58.9108 150.4H58.0948V150.304L59.3748 146.096ZM65.2787 143.44C66.2067 143.44 66.9214 143.237 67.4227 142.832C67.9347 142.427 68.1907 141.936 68.1907 141.36C68.1907 140.741 67.9507 140.229 67.4707 139.824C66.9907 139.419 66.324 139.216 65.4707 139.216C64.6067 139.216 63.9667 139.419 63.5507 139.824C63.1454 140.229 62.9427 140.779 62.9427 141.472C62.9427 142.784 63.7214 143.44 65.2787 143.44ZM65.4547 148.176C64.3134 148.176 63.444 147.931 62.8467 147.44C62.2494 146.949 61.8654 146.229 61.6947 145.28L62.7827 145.088C63.0494 146.485 63.9454 147.184 65.4707 147.184C66.4734 147.184 67.2094 146.832 67.6787 146.128C68.1587 145.413 68.3987 144.325 68.3987 142.864C68.3987 142.597 68.3934 142.368 68.3827 142.176L68.2227 142.16C67.828 143.568 66.7454 144.272 64.9747 144.272C64.036 144.272 63.2734 144.043 62.6867 143.584C62.1 143.125 61.8067 142.416 61.8067 141.456C61.8067 140.475 62.1214 139.691 62.7507 139.104C63.3907 138.517 64.3027 138.224 65.4867 138.224C68.132 138.224 69.4547 139.808 69.4547 142.976C69.4547 144.565 69.1294 145.829 68.4787 146.768C67.8387 147.707 66.8307 148.176 65.4547 148.176ZM76.7579 140.304C76.2886 139.6 75.5793 139.248 74.6299 139.248C73.6806 139.248 72.9659 139.6 72.4859 140.304C72.0166 141.008 71.7819 141.968 71.7819 143.184C71.7819 144.4 72.0166 145.371 72.4859 146.096C72.9659 146.811 73.6806 147.168 74.6299 147.168C75.5793 147.168 76.2886 146.811 76.7579 146.096C77.2379 145.371 77.4779 144.4 77.4779 143.184C77.4779 141.957 77.2379 140.997 76.7579 140.304ZM74.6299 138.224C75.9099 138.224 76.8966 138.672 77.5899 139.568C78.2939 140.453 78.6459 141.659 78.6459 143.184C78.6459 144.709 78.2939 145.925 77.5899 146.832C76.8966 147.728 75.9099 148.176 74.6299 148.176C73.3499 148.176 72.3633 147.728 71.6699 146.832C70.9766 145.925 70.6299 144.709 70.6299 143.184C70.6299 141.669 70.9819 140.464 71.6859 139.568C72.3899 138.672 73.3713 138.224 74.6299 138.224ZM87.4997 145.52C87.4997 147.291 86.209 148.176 83.6277 148.176C81.0464 148.176 79.7557 147.291 79.7557 145.52C79.7557 144.208 80.6304 143.451 82.3797 143.248V143.056C80.929 142.757 80.209 141.995 80.2197 140.768C80.2304 139.979 80.513 139.36 81.0677 138.912C81.633 138.453 82.4864 138.224 83.6277 138.224C84.769 138.224 85.6224 138.453 86.1877 138.912C86.753 139.36 87.0357 139.979 87.0357 140.768C87.0357 141.995 86.3157 142.757 84.8757 143.056V143.248C86.625 143.451 87.4997 144.208 87.4997 145.52ZM86.3477 145.424C86.3477 144.208 85.441 143.6 83.6277 143.6C81.8144 143.6 80.9077 144.208 80.9077 145.424C80.9077 146.608 81.8144 147.2 83.6277 147.2C85.441 147.2 86.3477 146.608 86.3477 145.424ZM85.9157 140.96C85.9157 139.797 85.153 139.216 83.6277 139.216C82.1024 139.216 81.3397 139.797 81.3397 140.96C81.329 141.568 81.5317 142.021 81.9477 142.32C82.3637 142.608 82.9237 142.752 83.6277 142.752C84.3317 142.752 84.8864 142.608 85.2917 142.32C85.7077 142.021 85.9157 141.568 85.9157 140.96ZM96.6022 148H95.1142L91.2582 138.4H92.4902L94.4102 143.392C94.9009 144.629 95.3222 145.824 95.6742 146.976H96.0422C96.4369 145.803 96.8689 144.608 97.3382 143.392L99.2422 138.4H100.442L96.6022 148ZM107.233 147.136C106.593 147.829 105.692 148.176 104.529 148.176C103.366 148.176 102.46 147.829 101.809 147.136C101.169 146.432 100.849 145.472 100.849 144.256C100.849 143.051 101.18 142.107 101.841 141.424C102.513 140.731 103.409 140.384 104.529 140.384C105.649 140.384 106.54 140.731 107.201 141.424C107.873 142.107 108.209 143.051 108.209 144.256C108.209 145.472 107.884 146.432 107.233 147.136ZM106.433 142.128C105.985 141.616 105.35 141.36 104.529 141.36C103.708 141.36 103.073 141.616 102.625 142.128C102.177 142.629 101.953 143.333 101.953 144.24C101.953 145.157 102.166 145.883 102.593 146.416C103.03 146.939 103.67 147.2 104.513 147.2C105.356 147.2 105.996 146.939 106.433 146.416C106.881 145.883 107.105 145.157 107.105 144.24C107.105 143.333 106.881 142.629 106.433 142.128ZM110.279 145.824V141.504H109.063V140.56H110.279V138.416H111.367V140.56H113.895V141.504H111.367V145.744C111.367 146.683 111.788 147.152 112.631 147.152C112.972 147.152 113.367 147.088 113.815 146.96L113.975 147.936C113.484 148.096 112.972 148.176 112.439 148.176C111.724 148.176 111.185 147.963 110.823 147.536C110.46 147.109 110.279 146.539 110.279 145.824ZM118.434 141.296C117.708 141.296 117.127 141.504 116.69 141.92C116.263 142.325 116.012 142.933 115.938 143.744H120.754C120.69 142.112 119.916 141.296 118.434 141.296ZM118.498 148.176C117.346 148.176 116.444 147.835 115.794 147.152C115.143 146.469 114.818 145.52 114.818 144.304C114.818 143.088 115.148 142.133 115.81 141.44C116.471 140.736 117.356 140.384 118.466 140.384C119.532 140.384 120.348 140.693 120.914 141.312C121.49 141.92 121.778 142.752 121.778 143.808C121.778 144.139 121.767 144.4 121.746 144.592H115.922C115.975 145.435 116.22 146.085 116.658 146.544C117.095 147.003 117.708 147.232 118.498 147.232C119.18 147.232 119.687 147.083 120.018 146.784C120.348 146.485 120.594 146.064 120.754 145.52L121.73 145.808C121.335 147.387 120.258 148.176 118.498 148.176ZM126.208 148.192C125.152 148.192 124.362 147.984 123.84 147.568C123.328 147.141 122.981 146.517 122.8 145.696L123.824 145.488C123.962 146.064 124.213 146.512 124.576 146.832C124.949 147.141 125.498 147.296 126.224 147.296C127.408 147.296 128 146.875 128 146.032C128 145.648 127.84 145.36 127.52 145.168C127.2 144.965 126.629 144.795 125.808 144.656C124.88 144.496 124.213 144.245 123.808 143.904C123.402 143.552 123.2 143.083 123.2 142.496C123.2 141.856 123.434 141.344 123.904 140.96C124.373 140.576 125.05 140.384 125.936 140.384C126.821 140.384 127.482 140.571 127.92 140.944C128.357 141.307 128.666 141.845 128.848 142.56L127.824 142.8C127.696 142.245 127.477 141.851 127.168 141.616C126.869 141.381 126.453 141.264 125.92 141.264C124.821 141.264 124.272 141.659 124.272 142.448C124.272 142.789 124.416 143.072 124.704 143.296C125.002 143.509 125.514 143.675 126.24 143.792C127.253 143.963 127.978 144.224 128.416 144.576C128.864 144.917 129.088 145.392 129.088 146C129.088 146.683 128.848 147.221 128.368 147.616C127.898 148 127.178 148.192 126.208 148.192Z" fill="black"/>
<rect x="49" y="159" width="240" height="11" rx="5" fill="#439F6E"/>
<rect x="294" y="159" width="90" height="11" rx="5" fill="#F93232"/>
<path fill-rule="evenodd" clip-rule="evenodd" d="M60.2929 183.293C60.6834 182.902 61.3166 182.902 61.7071 183.293L67.7071 189.293C68.0976 189.683 68.0976 190.317 67.7071 190.707C67.3166 191.098 66.6834 191.098 66.2929 190.707L61 185.414L55.7071 190.707C55.3166 191.098 54.6834 191.098 54.2929 190.707C53.9024 190.317 53.9024 189.683 54.2929 189.293L60.2929 183.293Z" fill="#439F6E"/>
<path d="M88.2152 183.716C87.3939 183.716 86.7539 183.951 86.2952 184.42C85.8472 184.879 85.5592 185.593 85.4312 186.564L84.3432 186.404C84.6845 183.951 85.9699 182.724 88.1992 182.724C89.2872 182.724 90.1139 182.964 90.6792 183.444C91.2552 183.924 91.5432 184.623 91.5432 185.54C91.5432 186.393 91.2445 187.065 90.6472 187.556C90.0605 188.036 89.1699 188.452 87.9752 188.804C86.8339 189.167 86.0659 189.535 85.6712 189.908C85.2872 190.281 85.0792 190.852 85.0472 191.62C86.2632 191.535 87.3779 191.492 88.3912 191.492H91.7032V192.5H84.0552C84.0445 192.34 84.0392 192.095 84.0392 191.764C84.0392 190.708 84.2952 189.913 84.8072 189.38C85.3192 188.836 86.1832 188.377 87.3992 188.004C88.5085 187.663 89.2872 187.311 89.7352 186.948C90.1832 186.575 90.4072 186.095 90.4072 185.508C90.4072 184.953 90.2259 184.516 89.8632 184.196C89.5005 183.876 88.9512 183.716 88.2152 183.716ZM99.0236 184.804C98.5542 184.1 97.8449 183.748 96.8956 183.748C95.9462 183.748 95.2316 184.1 94.7516 184.804C94.2822 185.508 94.0476 186.468 94.0476 187.684C94.0476 188.9 94.2822 189.871 94.7516 190.596C95.2316 191.311 95.9462 191.668 96.8956 191.668C97.8449 191.668 98.5542 191.311 99.0236 190.596C99.5036 189.871 99.7436 188.9 99.7436 187.684C99.7436 186.457 99.5036 185.497 99.0236 184.804ZM96.8956 182.724C98.1756 182.724 99.1622 183.172 99.8556 184.068C100.56 184.953 100.912 186.159 100.912 187.684C100.912 189.209 100.56 190.425 99.8556 191.332C99.1622 192.228 98.1756 192.676 96.8956 192.676C95.6156 192.676 94.6289 192.228 93.9356 191.332C93.2422 190.425 92.8956 189.209 92.8956 187.684C92.8956 186.169 93.2476 184.964 93.9516 184.068C94.6556 183.172 95.6369 182.724 96.8956 182.724ZM108.117 184.804C107.648 184.1 106.939 183.748 105.989 183.748C105.04 183.748 104.325 184.1 103.845 184.804C103.376 185.508 103.141 186.468 103.141 187.684C103.141 188.9 103.376 189.871 103.845 190.596C104.325 191.311 105.04 191.668 105.989 191.668C106.939 191.668 107.648 191.311 108.117 190.596C108.597 189.871 108.837 188.9 108.837 187.684C108.837 186.457 108.597 185.497 108.117 184.804ZM105.989 182.724C107.269 182.724 108.256 183.172 108.949 184.068C109.653 184.953 110.005 186.159 110.005 187.684C110.005 189.209 109.653 190.425 108.949 191.332C108.256 192.228 107.269 192.676 105.989 192.676C104.709 192.676 103.723 192.228 103.029 191.332C102.336 190.425 101.989 189.209 101.989 187.684C101.989 186.169 102.341 184.964 103.045 184.068C103.749 183.172 104.731 182.724 105.989 182.724ZM117.211 184.804C116.742 184.1 116.032 183.748 115.083 183.748C114.134 183.748 113.419 184.1 112.939 184.804C112.47 185.508 112.235 186.468 112.235 187.684C112.235 188.9 112.47 189.871 112.939 190.596C113.419 191.311 114.134 191.668 115.083 191.668C116.032 191.668 116.742 191.311 117.211 190.596C117.691 189.871 117.931 188.9 117.931 187.684C117.931 186.457 117.691 185.497 117.211 184.804ZM115.083 182.724C116.363 182.724 117.35 183.172 118.043 184.068C118.747 184.953 119.099 186.159 119.099 187.684C119.099 189.209 118.747 190.425 118.043 191.332C117.35 192.228 116.363 192.676 115.083 192.676C113.803 192.676 112.816 192.228 112.123 191.332C111.43 190.425 111.083 189.209 111.083 187.684C111.083 186.169 111.435 184.964 112.139 184.068C112.843 183.172 113.824 182.724 115.083 182.724Z" fill="black"/>
<path fill-rule="evenodd" clip-rule="evenodd" d="M301.293 183.293C301.683 182.902 302.317 182.902 302.707 183.293L308 188.586L313.293 183.293C313.683 182.902 314.317 182.902 314.707 183.293C315.098 183.683 315.098 184.317 314.707 184.707L308.707 190.707C308.317 191.098 307.683 191.098 307.293 190.707L301.293 184.707C300.902 184.317 300.902 183.683 301.293 183.293Z" fill="#F93232"/>
<path d="M334.716 187.94C335.644 187.94 336.359 187.737 336.86 187.332C337.372 186.927 337.628 186.436 337.628 185.86C337.628 185.241 337.388 184.729 336.908 184.324C336.428 183.919 335.762 183.716 334.908 183.716C334.044 183.716 333.404 183.919 332.988 184.324C332.583 184.729 332.38 185.279 332.38 185.972C332.38 187.284 333.159 187.94 334.716 187.94ZM334.892 192.676C333.751 192.676 332.882 192.431 332.284 191.94C331.687 191.449 331.303 190.729 331.132 189.78L332.22 189.588C332.487 190.985 333.383 191.684 334.908 191.684C335.911 191.684 336.647 191.332 337.116 190.628C337.596 189.913 337.836 188.825 337.836 187.364C337.836 187.097 337.831 186.868 337.82 186.676L337.66 186.66C337.266 188.068 336.183 188.772 334.412 188.772C333.474 188.772 332.711 188.543 332.124 188.084C331.538 187.625 331.244 186.916 331.244 185.956C331.244 184.975 331.559 184.191 332.188 183.604C332.828 183.017 333.74 182.724 334.924 182.724C337.57 182.724 338.892 184.308 338.892 187.476C338.892 189.065 338.567 190.329 337.916 191.268C337.276 192.207 336.268 192.676 334.892 192.676ZM346.195 184.804C345.726 184.1 345.017 183.748 344.067 183.748C343.118 183.748 342.403 184.1 341.923 184.804C341.454 185.508 341.219 186.468 341.219 187.684C341.219 188.9 341.454 189.871 341.923 190.596C342.403 191.311 343.118 191.668 344.067 191.668C345.017 191.668 345.726 191.311 346.195 190.596C346.675 189.871 346.915 188.9 346.915 187.684C346.915 186.457 346.675 185.497 346.195 184.804ZM344.067 182.724C345.347 182.724 346.334 183.172 347.027 184.068C347.731 184.953 348.083 186.159 348.083 187.684C348.083 189.209 347.731 190.425 347.027 191.332C346.334 192.228 345.347 192.676 344.067 192.676C342.787 192.676 341.801 192.228 341.107 191.332C340.414 190.425 340.067 189.209 340.067 187.684C340.067 186.169 340.419 184.964 341.123 184.068C341.827 183.172 342.809 182.724 344.067 182.724ZM356.937 190.02C356.937 191.791 355.647 192.676 353.065 192.676C350.484 192.676 349.193 191.791 349.193 190.02C349.193 188.708 350.068 187.951 351.817 187.748V187.556C350.367 187.257 349.647 186.495 349.657 185.268C349.668 184.479 349.951 183.86 350.505 183.412C351.071 182.953 351.924 182.724 353.065 182.724C354.207 182.724 355.06 182.953 355.625 183.412C356.191 183.86 356.473 184.479 356.473 185.268C356.473 186.495 355.753 187.257 354.313 187.556V187.748C356.063 187.951 356.937 188.708 356.937 190.02ZM355.785 189.924C355.785 188.708 354.879 188.1 353.065 188.1C351.252 188.1 350.345 188.708 350.345 189.924C350.345 191.108 351.252 191.7 353.065 191.7C354.879 191.7 355.785 191.108 355.785 189.924ZM355.353 185.46C355.353 184.297 354.591 183.716 353.065 183.716C351.54 183.716 350.777 184.297 350.777 185.46C350.767 186.068 350.969 186.521 351.385 186.82C351.801 187.108 352.361 187.252 353.065 187.252C353.769 187.252 354.324 187.108 354.729 186.82C355.145 186.521 355.353 186.068 355.353 185.46Z" fill="black"/>
<rect x="491" y="142" width="131" height="48" rx="10" fill="#C2EC5B"/>
<path d="M543.757 173H541.897L537.077 161H538.617L541.017 167.24C541.63 168.787 542.157 170.28 542.597 171.72H543.057C543.55 170.253 544.09 168.76 544.677 167.24L547.057 161H548.557L543.757 173ZM557.045 171.92C556.245 172.787 555.119 173.22 553.665 173.22C552.212 173.22 551.079 172.787 550.265 171.92C549.465 171.04 549.065 169.84 549.065 168.32C549.065 166.813 549.479 165.633 550.305 164.78C551.145 163.913 552.265 163.48 553.665 163.48C555.065 163.48 556.179 163.913 557.005 164.78C557.845 165.633 558.265 166.813 558.265 168.32C558.265 169.84 557.859 171.04 557.045 171.92ZM556.045 165.66C555.485 165.02 554.692 164.7 553.665 164.7C552.639 164.7 551.845 165.02 551.285 165.66C550.725 166.287 550.445 167.167 550.445 168.3C550.445 169.447 550.712 170.353 551.245 171.02C551.792 171.673 552.592 172 553.645 172C554.699 172 555.499 171.673 556.045 171.02C556.605 170.353 556.885 169.447 556.885 168.3C556.885 167.167 556.605 166.287 556.045 165.66ZM560.852 170.28V164.88H559.332V163.7H560.852V161.02H562.212V163.7H565.372V164.88H562.212V170.18C562.212 171.353 562.739 171.94 563.792 171.94C564.219 171.94 564.712 171.86 565.272 171.7L565.472 172.92C564.859 173.12 564.219 173.22 563.552 173.22C562.659 173.22 561.985 172.953 561.532 172.42C561.079 171.887 560.852 171.173 560.852 170.28ZM571.046 164.62C570.14 164.62 569.413 164.88 568.866 165.4C568.333 165.907 568.02 166.667 567.926 167.68H573.946C573.866 165.64 572.9 164.62 571.046 164.62ZM571.126 173.22C569.686 173.22 568.56 172.793 567.746 171.94C566.933 171.087 566.526 169.9 566.526 168.38C566.526 166.86 566.94 165.667 567.766 164.8C568.593 163.92 569.7 163.48 571.086 163.48C572.42 163.48 573.44 163.867 574.146 164.64C574.866 165.4 575.226 166.44 575.226 167.76C575.226 168.173 575.213 168.5 575.186 168.74H567.906C567.973 169.793 568.28 170.607 568.826 171.18C569.373 171.753 570.14 172.04 571.126 172.04C571.98 172.04 572.613 171.853 573.026 171.48C573.44 171.107 573.746 170.58 573.946 169.9L575.166 170.26C574.673 172.233 573.326 173.22 571.126 173.22Z" fill="black"/>
</svg>
