<svg width="99" height="71" viewBox="0 0 99 71" fill="none" xmlns="http://www.w3.org/2000/svg">
<path d="M12.0801 -27L73.5443 -14.5447C90.6886 -11.0705 101.755 5.72235 98.2608 22.9632L93.8326 44.8154C90.3389 62.0562 73.6084 73.2163 56.4641 69.7421L26.0424 63.5774C8.89812 60.1032 -2.16785 43.3103 1.3259 26.0695L12.0801 -27Z" fill="black"/>
<path d="M48.1799 7.05141L48.496 5.49133C48.8026 3.97852 49.7457 3.38216 51.3253 3.70226L56.7609 4.80377C58.2476 5.10503 58.8377 6.01207 58.5311 7.52488L58.215 9.08496C57.142 14.3798 54.3745 19.9218 49.9124 25.7111C50.0053 25.7299 50.3976 25.4649 51.0892 24.916C51.7809 24.3671 52.6214 23.7992 53.611 23.2123C54.6197 22.5308 55.7773 21.8303 57.0839 21.1107C60.2192 19.4821 63.4623 18.5151 66.8131 18.2098L68.6006 17.9814C70.071 17.8857 70.8948 18.594 71.072 20.1064L71.6811 25.6929C71.82 27.3944 71.1077 28.2836 69.5444 28.3605C63.8457 29.2728 57.3017 28.3897 49.9124 25.7111C50.1912 25.7676 51.4043 26.7025 53.552 28.5157C58.1231 32.6903 61.1773 36.9513 62.7147 41.2986C63.4877 42.7349 63.1376 43.7467 61.6643 44.334L56.5432 46.6922C54.9962 47.1662 53.9659 46.7606 53.4525 45.4753C50.7647 40.5996 49.5847 34.0115 49.9124 25.7111C47.3575 33.068 44.2279 38.4875 40.5236 41.9695L39.2605 43.19C38.1943 44.1552 37.1066 44.0332 35.9974 42.8241L32.3377 38.6865C31.0235 37.5343 31.058 36.4093 32.4412 35.3115C36.6897 31.0539 42.5134 27.8538 49.9124 25.7111C41.8199 25.5477 35.8363 24.286 31.9616 21.9258L30.404 21.0196C29.1252 20.1699 28.9083 19.0923 29.7532 17.7871L32.5178 12.7366C33.289 11.3179 34.3508 11.0902 35.7034 12.0533C40.7506 14.3557 45.487 18.9083 49.9124 25.7111C47.8377 17.8097 47.2602 11.5898 48.1799 7.05141Z" fill="#C2EC5B"/>
</svg>
