<svg width="112" height="97" viewBox="0 0 112 97" fill="none" xmlns="http://www.w3.org/2000/svg">
<path d="M0.115234 28.6543L57.3117 2.93376C73.2656 -4.24052 92.0474 2.94961 99.2621 18.9934L108.406 39.3282C115.621 55.372 108.537 74.1939 92.5827 81.3682L64.2733 94.0985C48.3194 101.273 29.5376 94.0827 22.3229 78.0389L0.115234 28.6543Z" fill="black"/>
<path d="M49.298 35.2683L48.6452 33.8166C48.0121 32.4088 48.4306 31.3744 49.9005 30.7134L54.9588 28.4388C56.3422 27.8167 57.3505 28.2095 57.9835 29.6172L58.6364 31.069C60.8521 35.9962 61.8352 42.1123 61.5859 49.4173C61.6724 49.3785 61.8365 48.9344 62.0783 48.0852C62.3202 47.236 62.6719 46.2845 63.1336 45.2307C63.5557 44.0889 64.0877 42.8447 64.7296 41.4983C66.3271 38.347 68.398 35.6705 70.9422 33.4686L72.2611 32.2408C73.3999 31.3056 74.4822 31.4007 75.508 32.5261L79.2603 36.7094C80.3652 38.0107 80.3051 39.1484 79.0799 40.1225C74.9822 44.1865 69.1509 47.2848 61.5859 49.4173C61.8453 49.3007 63.376 49.3528 66.178 49.5736C72.3258 50.2997 77.2916 51.9805 81.0755 54.6158C82.541 55.3319 82.8465 56.3581 81.9921 57.6943L79.2067 62.5962C78.2263 63.8833 77.1528 64.1545 75.9863 63.4097C70.9597 61.0159 66.1595 56.3518 61.5859 49.4173C63.8 56.8839 64.4176 63.1116 63.4385 68.1003L63.1241 69.8283C62.8207 71.2341 61.8659 71.7693 60.2597 71.4338L54.874 70.2063C53.1344 70.0366 52.5065 69.1025 52.9902 67.4041C53.959 61.4679 56.8243 55.4724 61.5859 49.4173C54.9162 54.0033 49.3194 56.4672 44.7954 56.8092L43.0016 56.9811C41.4672 57.0365 40.6627 56.2876 40.588 54.7345L39.8891 49.0194C39.6884 47.4173 40.4182 46.6131 42.0786 46.6068C47.5215 45.5343 54.024 46.4712 61.5859 49.4173C55.2932 44.208 51.1972 39.4916 49.298 35.2683Z" fill="#C2EC5B"/>
</svg>
