<svg width="78" height="78" viewBox="0 0 78 78" fill="none" xmlns="http://www.w3.org/2000/svg">
<path fill-rule="evenodd" clip-rule="evenodd" d="M16.25 13C15.388 13 14.5614 13.3424 13.9519 13.9519C13.3424 14.5614 13 15.388 13 16.25V61.75C13 62.612 13.3424 63.4386 13.9519 64.0481C14.5614 64.6576 15.388 65 16.25 65H61.75C62.6119 65 63.4386 64.6576 64.0481 64.0481C64.6576 63.4386 65 62.6119 65 61.75V35.75C65 33.9551 66.4551 32.5 68.25 32.5C70.0449 32.5 71.5 33.9551 71.5 35.75V61.75C71.5 64.3359 70.4728 66.8158 68.6443 68.6443C66.8158 70.4728 64.3359 71.5 61.75 71.5H16.25C13.6641 71.5 11.1842 70.4728 9.35571 68.6443C7.52723 66.8158 6.5 64.3359 6.5 61.75V16.25C6.5 13.6641 7.52723 11.1842 9.35571 9.35571C11.1842 7.52723 13.6641 6.5 16.25 6.5H42.25C44.0449 6.5 45.5 7.95507 45.5 9.75C45.5 11.5449 44.0449 13 42.25 13H16.25Z" fill="black"/>
<path fill-rule="evenodd" clip-rule="evenodd" d="M21.8798 21.8798C23.4035 20.356 25.4701 19.5 27.625 19.5C29.7799 19.5 31.8465 20.356 33.3702 21.8798C34.894 23.4035 35.75 25.4701 35.75 27.625C35.75 29.7799 34.894 31.8465 33.3702 33.3702C31.8465 34.894 29.7799 35.75 27.625 35.75C25.4701 35.75 23.4035 34.894 21.8798 33.3702C20.356 31.8465 19.5 29.7799 19.5 27.625C19.5 25.4701 20.356 23.4035 21.8798 21.8798ZM27.625 26C27.194 26 26.7807 26.1712 26.476 26.476C26.1712 26.7807 26 27.194 26 27.625C26 28.056 26.1712 28.4693 26.476 28.774C26.7807 29.0788 27.194 29.25 27.625 29.25C28.056 29.25 28.4693 29.0788 28.774 28.774C29.0788 28.4693 29.25 28.056 29.25 27.625C29.25 27.194 29.0788 26.7807 28.774 26.476C28.4693 26.1712 28.056 26 27.625 26Z" fill="black"/>
<path fill-rule="evenodd" clip-rule="evenodd" d="M49.7019 30.2019C50.9711 28.9327 53.0289 28.9327 54.2981 30.2019L70.5481 46.4519C71.8173 47.7211 71.8173 49.7789 70.5481 51.0481C69.2789 52.3173 67.2211 52.3173 65.9519 51.0481L52 37.0962L18.5481 70.5481C17.2789 71.8173 15.2211 71.8173 13.9519 70.5481C12.6827 69.2789 12.6827 67.2211 13.9519 65.9519L49.7019 30.2019Z" fill="black"/>
<path fill-rule="evenodd" clip-rule="evenodd" d="M61.75 3.25C63.5449 3.25 65 4.70507 65 6.5V26C65 27.7949 63.5449 29.25 61.75 29.25C59.9551 29.25 58.5 27.7949 58.5 26V6.5C58.5 4.70507 59.9551 3.25 61.75 3.25Z" fill="#FF7A00"/>
<path fill-rule="evenodd" clip-rule="evenodd" d="M48.75 16.25C48.75 14.4551 50.2051 13 52 13H71.5C73.2949 13 74.75 14.4551 74.75 16.25C74.75 18.0449 73.2949 19.5 71.5 19.5H52C50.2051 19.5 48.75 18.0449 48.75 16.25Z" fill="#FF7A00"/>
</svg>
