<svg width="23" height="20" viewBox="0 0 23 20" fill="none" xmlns="http://www.w3.org/2000/svg">
<path d="M4 7.5C4.26522 7.5 4.51957 7.60536 4.70711 7.79289C4.89464 7.98043 5 8.23478 5 8.5C6.57114 8.49769 8.09698 9.02627 9.33 10H11.5C12.833 10 14.03 10.58 14.854 11.5H18C18.9453 11.4997 19.8712 11.7674 20.6705 12.272C21.4698 12.7767 22.1097 13.4975 22.516 14.351C20.151 17.472 16.322 19.5 12 19.5C9.21 19.5 6.85 18.897 4.94 17.842C4.87004 18.0351 4.74224 18.2018 4.57402 18.3196C4.40579 18.4374 4.20534 18.5003 4 18.5H1C0.734784 18.5 0.48043 18.3946 0.292893 18.2071C0.105357 18.0196 0 17.7652 0 17.5V8.5C0 8.23478 0.105357 7.98043 0.292893 7.79289C0.48043 7.60536 0.734784 7.5 1 7.5H4ZM5.001 10.5L5 15.522L5.045 15.554C6.84 16.814 9.178 17.5 12 17.5C15.004 17.5 17.799 16.344 19.835 14.37L19.968 14.237L19.848 14.137C19.3758 13.7672 18.8034 13.5477 18.205 13.507L18 13.5H15.889C15.961 13.822 16 14.156 16 14.5V15.5H7V13.5L13.79 13.499L13.756 13.421C13.5644 13.0205 13.2696 12.6783 12.9019 12.4295C12.5343 12.1806 12.107 12.0341 11.664 12.005L11.5 12H8.57C8.10531 11.5247 7.55027 11.1472 6.93752 10.8896C6.32477 10.632 5.66669 10.4995 5.002 10.5H5.001ZM3 9.5H2V16.5H3V9.5ZM17 3.5C17.7956 3.5 18.5587 3.81607 19.1213 4.37868C19.6839 4.94129 20 5.70435 20 6.5C20 7.29565 19.6839 8.05871 19.1213 8.62132C18.5587 9.18393 17.7956 9.5 17 9.5C16.2044 9.5 15.4413 9.18393 14.8787 8.62132C14.3161 8.05871 14 7.29565 14 6.5C14 5.70435 14.3161 4.94129 14.8787 4.37868C15.4413 3.81607 16.2044 3.5 17 3.5ZM17 5.5C16.7348 5.5 16.4804 5.60536 16.2929 5.79289C16.1054 5.98043 16 6.23478 16 6.5C16 6.76522 16.1054 7.01957 16.2929 7.20711C16.4804 7.39464 16.7348 7.5 17 7.5C17.2652 7.5 17.5196 7.39464 17.7071 7.20711C17.8946 7.01957 18 6.76522 18 6.5C18 6.23478 17.8946 5.98043 17.7071 5.79289C17.5196 5.60536 17.2652 5.5 17 5.5ZM10 0.5C10.7956 0.5 11.5587 0.816071 12.1213 1.37868C12.6839 1.94129 13 2.70435 13 3.5C13 4.29565 12.6839 5.05871 12.1213 5.62132C11.5587 6.18393 10.7956 6.5 10 6.5C9.20435 6.5 8.44129 6.18393 7.87868 5.62132C7.31607 5.05871 7 4.29565 7 3.5C7 2.70435 7.31607 1.94129 7.87868 1.37868C8.44129 0.816071 9.20435 0.5 10 0.5ZM10 2.5C9.73478 2.5 9.48043 2.60536 9.29289 2.79289C9.10536 2.98043 9 3.23478 9 3.5C9 3.76522 9.10536 4.01957 9.29289 4.20711C9.48043 4.39464 9.73478 4.5 10 4.5C10.2652 4.5 10.5196 4.39464 10.7071 4.20711C10.8946 4.01957 11 3.76522 11 3.5C11 3.23478 10.8946 2.98043 10.7071 2.79289C10.5196 2.60536 10.2652 2.5 10 2.5Z" fill="#FF3636"/>
</svg>
