<svg width="83" height="82" viewBox="0 0 83 82" fill="none" xmlns="http://www.w3.org/2000/svg">
<circle cx="41.5" cy="41" r="41" fill="#C2EC5B" fill-opacity="0.3"/>
<g clip-path="url(#clip0_970_11)">
<path d="M50.7493 34.2083H55.1243C55.5111 34.2083 55.8821 34.362 56.1555 34.6355C56.429 34.909 56.5827 35.2799 56.5827 35.6667V53.1667C56.5827 53.5534 56.429 53.9244 56.1555 54.1979C55.8821 54.4714 55.5111 54.625 55.1243 54.625H28.8743C28.4876 54.625 28.1166 54.4714 27.8432 54.1979C27.5697 53.9244 27.416 53.5534 27.416 53.1667V29.8333C27.416 29.4466 27.5697 29.0756 27.8432 28.8021C28.1166 28.5286 28.4876 28.375 28.8743 28.375H50.7493V34.2083ZM30.3327 37.125V51.7083H53.666V37.125H30.3327ZM30.3327 31.2917V34.2083H47.8327V31.2917H30.3327ZM46.3743 42.9583H50.7493V45.875H46.3743V42.9583Z" fill="#A1C54B"/>
</g>
<defs>
<clipPath id="clip0_970_11">
<rect width="35" height="35" fill="white" transform="translate(24.5 24)"/>
</clipPath>
</defs>
</svg>
