<svg width="83" height="82" viewBox="0 0 83 82" fill="none" xmlns="http://www.w3.org/2000/svg">
<circle cx="41.5" cy="41" r="41" fill="#5BC9EC" fill-opacity="0.3"/>
<g clip-path="url(#clip0_970_20)">
<path d="M56.25 28.3332H34.0833C33.2435 28.3332 32.438 28.6668 31.8442 29.2607C31.2503 29.8545 30.9167 30.66 30.9167 31.4998C30.9167 32.3397 31.2503 33.1451 31.8442 33.739C32.438 34.3329 33.2435 34.6665 34.0833 34.6665H56.25V55.2498C56.25 55.6698 56.0832 56.0725 55.7863 56.3694C55.4893 56.6664 55.0866 56.8332 54.6667 56.8332H34.0833C32.4036 56.8332 30.7927 56.1659 29.605 54.9782C28.4173 53.7904 27.75 52.1795 27.75 50.4998V31.4998C27.75 29.8201 28.4173 28.2092 29.605 27.0215C30.7927 25.8338 32.4036 25.1665 34.0833 25.1665H54.6667C55.0866 25.1665 55.4893 25.3333 55.7863 25.6303C56.0832 25.9272 56.25 26.3299 56.25 26.7498V28.3332ZM30.9167 50.4998C30.9167 51.3397 31.2503 52.1451 31.8442 52.739C32.438 53.3329 33.2435 53.6665 34.0833 53.6665H53.0833V37.8332H34.0833C32.9716 37.8349 31.8791 37.5427 30.9167 36.9861V50.4998ZM54.6667 33.0832H34.0833C33.6634 33.0832 33.2607 32.9164 32.9637 32.6194C32.6668 32.3225 32.5 31.9198 32.5 31.4998C32.5 31.0799 32.6668 30.6772 32.9637 30.3803C33.2607 30.0833 33.6634 29.9165 34.0833 29.9165H54.6667V33.0832Z" fill="#5BC9EC"/>
</g>
<defs>
<clipPath id="clip0_970_20">
<rect width="38" height="38" fill="white" transform="translate(23 22)"/>
</clipPath>
</defs>
</svg>
