<svg width="32" height="32" viewBox="0 0 32 32" fill="none" xmlns="http://www.w3.org/2000/svg">
<g clip-path="url(#clip0_826_848)">
<path fill-rule="evenodd" clip-rule="evenodd" d="M10.3705 16.1192C9.58717 16.7153 9.07271 17.5981 8.94029 18.5735C8.80787 19.5489 9.06835 20.5369 9.66442 21.3203C10.2605 22.1036 11.1433 22.6181 12.1187 22.7505C13.0941 22.8829 14.0821 22.6224 14.8655 22.0264L16.3423 20.9026C16.7501 20.5923 17.3322 20.6713 17.6425 21.0791C17.9528 21.4869 17.8738 22.0691 17.466 22.3794L15.9892 23.5031C14.8142 24.3973 13.3322 24.788 11.8691 24.5893C10.406 24.3907 9.08175 23.619 8.18764 22.444C7.29353 21.269 6.90281 19.787 7.10144 18.3239C7.30006 16.8608 8.07176 15.5365 9.24676 14.6424L10.7235 13.5187C11.1313 13.2084 11.7135 13.2874 12.0238 13.6952C12.3341 14.103 12.2551 14.6852 11.8473 14.9955L10.3705 16.1192ZM14.9774 11.4477C14.6671 11.0399 14.7461 10.4578 15.1539 10.1475L16.6307 9.02372C17.8057 8.12961 19.2877 7.73889 20.7508 7.93752C22.2139 8.13614 23.5382 8.90784 24.4323 10.0828C25.3264 11.2578 25.7171 12.7399 25.5185 14.203C25.3198 15.6661 24.5482 16.9903 23.3732 17.8844L21.8964 19.0082C21.4886 19.3185 20.9064 19.2395 20.5961 18.8317C20.2858 18.4238 20.3648 17.8417 20.7726 17.5314L22.2494 16.4076C23.0327 15.8116 23.5472 14.9287 23.6796 13.9533C23.812 12.978 23.5516 11.9899 22.9555 11.2066C22.3594 10.4232 21.4766 9.90878 20.5012 9.77637C19.5258 9.64395 18.5378 9.90443 17.7544 10.5005L16.2776 11.6242C15.8698 11.9346 15.2877 11.8555 14.9774 11.4477Z" fill="black"/>
<path fill-rule="evenodd" clip-rule="evenodd" d="M12.6166 19.0729C12.3062 18.6651 12.3853 18.0829 12.7931 17.7726L18.7002 13.2776C19.108 12.9673 19.6902 13.0463 20.0005 13.4541C20.3108 13.8619 20.2318 14.4441 19.824 14.7544L13.9168 19.2494C13.509 19.5597 12.9269 19.4807 12.6166 19.0729Z" fill="black"/>
</g>
<defs>
<clipPath id="clip0_826_848">
<rect width="22.2686" height="22.2686" fill="white" transform="translate(0.703125 14.1453) rotate(-37.2689)"/>
</clipPath>
</defs>
</svg>
