<svg width="55" height="55" viewBox="0 0 55 55" fill="none" xmlns="http://www.w3.org/2000/svg">
<circle cx="27.5" cy="27.5" r="27.5" fill="#0085FF" fill-opacity="0.3"/>
<g clip-path="url(#clip0_994_795)">
<path d="M29.914 30.58C29.7537 30.6191 29.5923 30.6538 29.43 30.684C28.5494 30.8498 27.6453 30.8464 26.766 30.674C26.612 30.644 26.394 30.591 26.113 30.516L25.192 31.713C22.919 31.64 22.055 30.117 22.055 30.117C22.055 26.736 23.536 23.995 23.536 23.995C25.017 22.862 26.426 22.893 26.426 22.893L26.829 23.418C26.8661 23.4128 26.9035 23.4095 26.941 23.408C27.7092 23.3062 28.4877 23.3095 29.255 23.418L29.697 22.893C29.697 22.893 31.107 22.862 32.587 23.996C32.587 23.996 34.069 26.736 34.069 30.117C34.069 30.117 33.194 31.639 30.921 31.713L29.914 30.579V30.58ZM26.076 27C25.475 27 25 27.45 25 28C25 28.55 25.485 29 26.076 29C26.676 29 27.151 28.55 27.151 28C27.161 27.45 26.677 27 26.076 27ZM29.924 27C29.324 27 28.849 27.45 28.849 28C28.849 28.55 29.334 29 29.924 29C30.525 29 31 28.55 31 28C31 27.45 30.525 27 29.924 27ZM37 39L32.01 34H35V20H21V34H32.003L32.573 36H21C20.4696 36 19.9609 35.7893 19.5858 35.4142C19.2107 35.0391 19 34.5304 19 34V20C19 19.4696 19.2107 18.9609 19.5858 18.5858C19.9609 18.2107 20.4696 18 21 18H35C35.5304 18 36.0391 18.2107 36.4142 18.5858C36.7893 18.9609 37 19.4696 37 20V39Z" fill="#0085FF"/>
</g>
<defs>
<clipPath id="clip0_994_795">
<rect width="24" height="24" fill="white" transform="translate(16 16)"/>
</clipPath>
</defs>
</svg>
