<svg width="55" height="50" viewBox="0 0 55 50" fill="none" xmlns="http://www.w3.org/2000/svg">
<path d="M0.785156 0.526123H36.646C46.6487 0.526123 54.7576 8.6806 54.7576 18.7397V31.4891C54.7576 41.5482 46.6487 49.7027 36.646 49.7027H18.8967C8.89397 49.7027 0.785156 41.5482 0.785156 31.4891V0.526123Z" fill="black"/>
<path d="M24.8837 15.5098V14.5996C24.8837 13.7169 25.3445 13.2756 26.2661 13.2756H29.4375C30.3049 13.2756 30.7386 13.7169 30.7386 14.5996V15.5098C30.7386 18.599 29.817 22.0192 27.9738 25.7705C28.028 25.7705 28.2177 25.5774 28.543 25.1912C28.8683 24.8051 29.2749 24.3913 29.7628 23.95C30.2507 23.4535 30.8199 22.9295 31.4705 22.3778C33.0426 21.109 34.7503 20.1988 36.5935 19.6472L37.5693 19.3162C38.3825 19.0955 38.9246 19.3989 39.1957 20.2264L40.1715 23.288C40.4426 24.2258 40.1444 24.8051 39.277 25.0257C36.1869 26.1842 32.4192 26.4324 27.9738 25.7705C28.1364 25.7705 28.9225 26.1566 30.332 26.9289C33.3679 28.7494 35.5635 30.7905 36.9188 33.0522C37.5151 33.7694 37.4338 34.3762 36.6748 34.8727L34.0726 36.7759C33.2595 37.2172 32.636 37.1069 32.2023 36.4449C30.1423 34.0176 28.7327 30.4595 27.9738 25.7705C27.3774 30.1837 26.239 33.5763 24.5584 35.9484L23.9892 36.7759C23.5013 37.4378 22.8778 37.493 22.1189 36.9414L19.598 35.0382C18.7306 34.5417 18.6222 33.9073 19.2727 33.135C21.1701 30.2664 24.0705 27.8116 27.9738 25.7705C23.4199 26.5979 19.9233 26.5703 17.4837 25.6877L16.5079 25.3567C15.6947 25.0257 15.4508 24.4465 15.776 23.619L16.7518 20.4746C17.0229 19.592 17.5921 19.3437 18.4595 19.7299C21.5496 20.447 24.721 22.4606 27.9738 25.7705C25.9137 21.5779 24.8837 18.1577 24.8837 15.5098Z" fill="white"/>
</svg>
