<svg width="22" height="17" viewBox="0 0 22 17" fill="none" xmlns="http://www.w3.org/2000/svg">
<path d="M11 0.5C17.075 0.5 22 3.186 22 6.5V10.5C22 13.814 17.075 16.5 11 16.5C5.033 16.5 0.176 13.909 0.005 10.677L0 10.5V6.5C0 3.186 4.925 0.5 11 0.5ZM11 12.5C7.28 12.5 3.99 11.493 2 9.95V10.5C2 12.382 5.883 14.5 11 14.5C16.01 14.5 19.838 12.47 19.995 10.618L20 10.5L20.001 9.95C18.011 11.492 14.721 12.5 11 12.5ZM11 2.5C5.883 2.5 2 4.618 2 6.5C2 8.382 5.883 10.5 11 10.5C16.117 10.5 20 8.382 20 6.5C20 4.618 16.117 2.5 11 2.5Z" fill="#364BFF"/>
</svg>
