<svg width="21" height="21" viewBox="0 0 21 21" fill="none" xmlns="http://www.w3.org/2000/svg">
<path d="M10.5 20.5C4.977 20.5 0.5 16.023 0.5 10.5C0.5 4.977 4.977 0.5 10.5 0.5C16.023 0.5 20.5 4.977 20.5 10.5C20.5 16.023 16.023 20.5 10.5 20.5ZM10.5 18.5C12.6217 18.5 14.6566 17.6571 16.1569 16.1569C17.6571 14.6566 18.5 12.6217 18.5 10.5C18.5 8.37827 17.6571 6.34344 16.1569 4.84315C14.6566 3.34285 12.6217 2.5 10.5 2.5C8.37827 2.5 6.34344 3.34285 4.84315 4.84315C3.34285 6.34344 2.5 8.37827 2.5 10.5C2.5 12.6217 3.34285 14.6566 4.84315 16.1569C6.34344 17.6571 8.37827 18.5 10.5 18.5ZM9.5 13.5H11.5V15.5H9.5V13.5ZM11.5 11.855V12.5H9.5V11C9.5 10.7348 9.60536 10.4804 9.79289 10.2929C9.98043 10.1054 10.2348 10 10.5 10C10.7841 9.99998 11.0623 9.9193 11.3023 9.76733C11.5423 9.61536 11.7343 9.39837 11.8558 9.14158C11.9773 8.8848 12.0234 8.5988 11.9887 8.31684C11.954 8.03489 11.84 7.76858 11.6598 7.54891C11.4797 7.32924 11.2409 7.16523 10.9712 7.07597C10.7015 6.98671 10.412 6.97587 10.1364 7.04471C9.86081 7.11354 9.61042 7.25923 9.41437 7.46482C9.21832 7.6704 9.08468 7.92743 9.029 8.206L7.067 7.813C7.18863 7.20508 7.46951 6.64037 7.88092 6.17659C8.29233 5.7128 8.81952 5.36658 9.40859 5.17332C9.99766 4.98006 10.6275 4.94669 11.2337 5.07661C11.8399 5.20654 12.4007 5.49511 12.8588 5.91282C13.3169 6.33054 13.6559 6.86241 13.8411 7.45406C14.0263 8.04572 14.0511 8.67594 13.9129 9.28031C13.7747 9.88467 13.4785 10.4415 13.0545 10.8939C12.6306 11.3462 12.0941 11.6779 11.5 11.855Z" fill="#FF7A00"/>
</svg>
