<svg width="25" height="24" viewBox="0 0 25 24" fill="none" xmlns="http://www.w3.org/2000/svg">
<path fill-rule="evenodd" clip-rule="evenodd" d="M21.5 1C22.0523 1 22.5 1.44772 22.5 2V8C22.5 8.55228 22.0523 9 21.5 9H15.5C14.9477 9 14.5 8.55228 14.5 8C14.5 7.44772 14.9477 7 15.5 7H20.5V2C20.5 1.44772 20.9477 1 21.5 1Z" fill="white"/>
<path fill-rule="evenodd" clip-rule="evenodd" d="M13.7337 4.104C12.2084 3.86595 10.6468 4.07427 9.23734 4.70385C7.82784 5.33343 6.63059 6.35737 5.79 7.65216C4.94942 8.94695 4.50141 10.4573 4.5 12.001C4.4995 12.5533 4.05137 13.0006 3.49909 13.0001C2.9468 12.9996 2.4995 12.5515 2.5 11.9992C2.50176 10.0695 3.06178 8.18162 4.11251 6.56313C5.16324 4.94463 6.6598 3.66471 8.42168 2.87774C10.1836 2.09076 12.1355 1.83036 14.0421 2.12792C15.9486 2.42549 17.7284 3.26832 19.1667 4.55475L19.169 4.55681L22.169 7.25681C22.5795 7.62627 22.6128 8.25856 22.2433 8.66907C21.8738 9.07958 21.2415 9.11286 20.831 8.7434L17.8333 6.04546C17.833 6.04514 17.8326 6.04481 17.8322 6.04448C16.6818 5.01589 15.2584 4.34197 13.7337 4.104Z" fill="white"/>
<path fill-rule="evenodd" clip-rule="evenodd" d="M2.5 16C2.5 15.4477 2.94772 15 3.5 15H9.5C10.0523 15 10.5 15.4477 10.5 16C10.5 16.5523 10.0523 17 9.5 17H4.5V22C4.5 22.5523 4.05228 23 3.5 23C2.94772 23 2.5 22.5523 2.5 22V16Z" fill="white"/>
<path fill-rule="evenodd" clip-rule="evenodd" d="M21.5009 11C22.0532 11.0005 22.5005 11.4486 22.5 12.0009C22.4983 13.9306 21.9382 15.8185 20.8875 17.437C19.8368 19.0555 18.3402 20.3354 16.5783 21.1224C14.8165 21.9093 12.8645 22.1698 10.9579 21.8722C9.05137 21.5746 7.27162 20.7318 5.83334 19.4454L5.83104 19.4433L5.83104 19.4433L2.83104 16.7433C2.42053 16.3738 2.38726 15.7415 2.75671 15.331C3.12617 14.9205 3.75846 14.8872 4.16897 15.2567L7.16668 17.9546C7.16705 17.955 7.16743 17.9553 7.16781 17.9557C8.31823 18.9842 9.7416 19.6581 11.2664 19.8961C12.7916 20.1342 14.3532 19.9258 15.7627 19.2963C17.1722 18.6667 18.3694 17.6427 19.21 16.3479C20.0506 15.0532 20.4986 13.5428 20.5 11.9991C20.5005 11.4468 20.9486 10.9995 21.5009 11Z" fill="white"/>
</svg>
