<svg width="667" height="215" viewBox="0 0 667 215" fill="none" xmlns="http://www.w3.org/2000/svg">
<rect x="0.5" y="0.5" width="666" height="214" rx="30.5" fill="white" stroke="#E0E0E0"/>
<rect x="64" y="34" width="93" height="86" rx="12" fill="#62E5ED"/>
<rect x="185" y="50" width="240" height="23" rx="5" fill="#E4E4E4"/>
<rect x="185" y="91" width="422" height="13" rx="5" fill="#E4E4E4"/>
<rect x="380" y="142" width="227" height="48" rx="10" fill="#C2EC5B"/>
<path d="M428.947 166.72V173H427.547V161H430.027L432.407 166.9C432.714 167.673 433.181 168.973 433.807 170.8H434.187C434.721 169.187 435.187 167.88 435.587 166.88L438.047 161H440.407V173H438.967V166.72C438.967 166.36 438.987 164.86 439.027 162.22H438.647C437.967 164.233 437.387 165.82 436.907 166.98L434.667 172.24H433.127L430.927 166.92C430.461 165.76 429.914 164.193 429.287 162.22H428.907C428.934 163.1 428.947 164.6 428.947 166.72ZM445.929 172.06C446.862 172.06 447.616 171.827 448.189 171.36C448.776 170.893 449.069 170.3 449.069 169.58V168.94H446.029C444.642 168.94 443.949 169.467 443.949 170.52C443.949 170.973 444.102 171.347 444.409 171.64C444.729 171.92 445.236 172.06 445.929 172.06ZM449.129 173V170.78H448.969C448.729 171.567 448.309 172.167 447.709 172.58C447.122 172.993 446.402 173.2 445.549 173.2C443.589 173.2 442.609 172.347 442.609 170.64C442.609 169.827 442.889 169.173 443.449 168.68C444.009 168.173 444.816 167.92 445.869 167.92H449.069V167.06C449.069 166.26 448.889 165.66 448.529 165.26C448.182 164.86 447.602 164.66 446.789 164.66C445.442 164.66 444.609 165.347 444.289 166.72L442.969 166.38C443.182 165.46 443.616 164.753 444.269 164.26C444.922 163.753 445.769 163.5 446.809 163.5C449.222 163.5 450.429 164.68 450.429 167.04V173H449.129ZM454.474 160.16V167.78H455.454L459.194 163.7H460.774V163.92L456.574 168.3L461.174 172.78V173H459.574L455.494 168.88H454.474V173H453.114V160.16H454.474ZM466.366 164.62C465.46 164.62 464.733 164.88 464.186 165.4C463.653 165.907 463.34 166.667 463.246 167.68H469.266C469.186 165.64 468.22 164.62 466.366 164.62ZM466.446 173.22C465.006 173.22 463.88 172.793 463.066 171.94C462.253 171.087 461.846 169.9 461.846 168.38C461.846 166.86 462.26 165.667 463.086 164.8C463.913 163.92 465.02 163.48 466.406 163.48C467.74 163.48 468.76 163.867 469.466 164.64C470.186 165.4 470.546 166.44 470.546 167.76C470.546 168.173 470.533 168.5 470.506 168.74H463.226C463.293 169.793 463.6 170.607 464.146 171.18C464.693 171.753 465.46 172.04 466.446 172.04C467.3 172.04 467.933 171.853 468.346 171.48C468.76 171.107 469.066 170.58 469.266 169.9L470.486 170.26C469.993 172.233 468.646 173.22 466.446 173.22ZM479.289 172.06C480.222 172.06 480.975 171.827 481.549 171.36C482.135 170.893 482.429 170.3 482.429 169.58V168.94H479.389C478.002 168.94 477.309 169.467 477.309 170.52C477.309 170.973 477.462 171.347 477.769 171.64C478.089 171.92 478.595 172.06 479.289 172.06ZM482.489 173V170.78H482.329C482.089 171.567 481.669 172.167 481.069 172.58C480.482 172.993 479.762 173.2 478.909 173.2C476.949 173.2 475.969 172.347 475.969 170.64C475.969 169.827 476.249 169.173 476.809 168.68C477.369 168.173 478.175 167.92 479.229 167.92H482.429V167.06C482.429 166.26 482.249 165.66 481.889 165.26C481.542 164.86 480.962 164.66 480.149 164.66C478.802 164.66 477.969 165.347 477.649 166.72L476.329 166.38C476.542 165.46 476.975 164.753 477.629 164.26C478.282 163.753 479.129 163.5 480.169 163.5C482.582 163.5 483.789 164.68 483.789 167.04V173H482.489ZM494.858 162.26H491.898V167.2H494.878C495.838 167.2 496.538 167 496.978 166.6C497.431 166.2 497.658 165.58 497.658 164.74C497.658 163.86 497.445 163.227 497.018 162.84C496.605 162.453 495.885 162.26 494.858 162.26ZM495.038 168.42H491.898V173H490.458V161H494.998C497.718 161 499.078 162.24 499.078 164.72C499.078 165.84 498.725 166.74 498.018 167.42C497.311 168.087 496.318 168.42 495.038 168.42ZM502.167 173H500.787V163.7H502.127V166.2H502.247C502.687 164.467 503.673 163.6 505.207 163.6H505.587V165.1H505.147C504.107 165.1 503.347 165.347 502.867 165.84C502.4 166.32 502.167 167.113 502.167 168.22V173ZM514.553 171.92C513.753 172.787 512.626 173.22 511.173 173.22C509.72 173.22 508.586 172.787 507.773 171.92C506.973 171.04 506.573 169.84 506.573 168.32C506.573 166.813 506.986 165.633 507.813 164.78C508.653 163.913 509.773 163.48 511.173 163.48C512.573 163.48 513.686 163.913 514.513 164.78C515.353 165.633 515.773 166.813 515.773 168.32C515.773 169.84 515.366 171.04 514.553 171.92ZM513.553 165.66C512.993 165.02 512.2 164.7 511.173 164.7C510.146 164.7 509.353 165.02 508.793 165.66C508.233 166.287 507.953 167.167 507.953 168.3C507.953 169.447 508.22 170.353 508.753 171.02C509.3 171.673 510.1 172 511.153 172C512.206 172 513.006 171.673 513.553 171.02C514.113 170.353 514.393 169.447 514.393 168.3C514.393 167.167 514.113 166.287 513.553 165.66ZM522.239 172C524.145 172 525.099 170.787 525.099 168.36C525.099 167.133 524.865 166.227 524.399 165.64C523.932 165.04 523.212 164.74 522.239 164.74C521.305 164.74 520.559 165.033 519.999 165.62C519.452 166.207 519.179 167.007 519.179 168.02V168.72C519.179 169.693 519.459 170.487 520.019 171.1C520.579 171.7 521.319 172 522.239 172ZM526.479 168.36C526.479 169.92 526.152 171.12 525.499 171.96C524.859 172.8 523.965 173.22 522.819 173.22C521.899 173.22 521.132 172.973 520.519 172.48C519.919 171.973 519.505 171.3 519.279 170.46H519.179V176.06H517.799V163.7H519.179V166.2H519.299C519.832 164.387 520.972 163.48 522.719 163.48C523.932 163.48 524.859 163.9 525.499 164.74C526.152 165.58 526.479 166.787 526.479 168.36ZM535.862 171.92C535.062 172.787 533.935 173.22 532.482 173.22C531.028 173.22 529.895 172.787 529.082 171.92C528.282 171.04 527.882 169.84 527.882 168.32C527.882 166.813 528.295 165.633 529.122 164.78C529.962 163.913 531.082 163.48 532.482 163.48C533.882 163.48 534.995 163.913 535.822 164.78C536.662 165.633 537.082 166.813 537.082 168.32C537.082 169.84 536.675 171.04 535.862 171.92ZM534.862 165.66C534.302 165.02 533.508 164.7 532.482 164.7C531.455 164.7 530.662 165.02 530.102 165.66C529.542 166.287 529.262 167.167 529.262 168.3C529.262 169.447 529.528 170.353 530.062 171.02C530.608 171.673 531.408 172 532.462 172C533.515 172 534.315 171.673 534.862 171.02C535.422 170.353 535.702 169.447 535.702 168.3C535.702 167.167 535.422 166.287 534.862 165.66ZM542.607 173.24C541.287 173.24 540.3 172.98 539.647 172.46C539.007 171.927 538.574 171.147 538.347 170.12L539.627 169.86C539.8 170.58 540.114 171.14 540.567 171.54C541.034 171.927 541.72 172.12 542.627 172.12C544.107 172.12 544.847 171.593 544.847 170.54C544.847 170.06 544.647 169.7 544.247 169.46C543.847 169.207 543.134 168.993 542.107 168.82C540.947 168.62 540.114 168.307 539.607 167.88C539.1 167.44 538.847 166.853 538.847 166.12C538.847 165.32 539.14 164.68 539.727 164.2C540.314 163.72 541.16 163.48 542.267 163.48C543.374 163.48 544.2 163.713 544.747 164.18C545.294 164.633 545.68 165.307 545.907 166.2L544.627 166.5C544.467 165.807 544.194 165.313 543.807 165.02C543.434 164.727 542.914 164.58 542.247 164.58C540.874 164.58 540.187 165.073 540.187 166.06C540.187 166.487 540.367 166.84 540.727 167.12C541.1 167.387 541.74 167.593 542.647 167.74C543.914 167.953 544.82 168.28 545.367 168.72C545.927 169.147 546.207 169.74 546.207 170.5C546.207 171.353 545.907 172.027 545.307 172.52C544.72 173 543.82 173.24 542.607 173.24ZM550.91 172.06C551.843 172.06 552.596 171.827 553.17 171.36C553.756 170.893 554.05 170.3 554.05 169.58V168.94H551.01C549.623 168.94 548.93 169.467 548.93 170.52C548.93 170.973 549.083 171.347 549.39 171.64C549.71 171.92 550.216 172.06 550.91 172.06ZM554.11 173V170.78H553.95C553.71 171.567 553.29 172.167 552.69 172.58C552.103 172.993 551.383 173.2 550.53 173.2C548.57 173.2 547.59 172.347 547.59 170.64C547.59 169.827 547.87 169.173 548.43 168.68C548.99 168.173 549.796 167.92 550.85 167.92H554.05V167.06C554.05 166.26 553.87 165.66 553.51 165.26C553.163 164.86 552.583 164.66 551.77 164.66C550.423 164.66 549.59 165.347 549.27 166.72L547.95 166.38C548.163 165.46 548.596 164.753 549.25 164.26C549.903 163.753 550.75 163.5 551.79 163.5C554.203 163.5 555.41 164.68 555.41 167.04V173H554.11ZM559.454 160.16V173H558.094V160.16H559.454Z" fill="black"/>
</svg>
