<svg width="20" height="19" viewBox="0 0 20 19" fill="none" xmlns="http://www.w3.org/2000/svg">
<path d="M1 0.75H19C19.2652 0.75 19.5196 0.855357 19.7071 1.04289C19.8946 1.23043 20 1.48478 20 1.75V17.75C20 18.0152 19.8946 18.2696 19.7071 18.4571C19.5196 18.6446 19.2652 18.75 19 18.75H1C0.734784 18.75 0.48043 18.6446 0.292893 18.4571C0.105357 18.2696 0 18.0152 0 17.75V1.75C0 1.48478 0.105357 1.23043 0.292893 1.04289C0.48043 0.855357 0.734784 0.75 1 0.75ZM9 6.25V13.25H11V6.25H9ZM8.715 6.25H6.601L5.104 10.363L3.607 6.25H1.493L4.104 13.214H6.104L8.715 6.25ZM14 11.25H15.5C16.163 11.25 16.7989 10.9866 17.2678 10.5178C17.7366 10.0489 18 9.41304 18 8.75C18 8.08696 17.7366 7.45107 17.2678 6.98223C16.7989 6.51339 16.163 6.25 15.5 6.25H12V13.25H14V11.25ZM14 9.25V8.25H15.5C15.6326 8.25 15.7598 8.30268 15.8536 8.39645C15.9473 8.49021 16 8.61739 16 8.75C16 8.88261 15.9473 9.00979 15.8536 9.10355C15.7598 9.19732 15.6326 9.25 15.5 9.25H14Z" fill="#FF7A00"/>
</svg>
