<svg width="24" height="25" viewBox="0 0 24 25" fill="none" xmlns="http://www.w3.org/2000/svg">
<path fill-rule="evenodd" clip-rule="evenodd" d="M4 11.5C4.55228 11.5 5 11.9477 5 12.5V20.5C5 20.7652 5.10536 21.0196 5.29289 21.2071C5.48043 21.3946 5.73478 21.5 6 21.5H18C18.2652 21.5 18.5196 21.3946 18.7071 21.2071C18.8946 21.0196 19 20.7652 19 20.5V12.5C19 11.9477 19.4477 11.5 20 11.5C20.5523 11.5 21 11.9477 21 12.5V20.5C21 21.2957 20.6839 22.0587 20.1213 22.6213C19.5587 23.1839 18.7957 23.5 18 23.5H6C5.20435 23.5 4.44129 23.1839 3.87868 22.6213C3.31607 22.0587 3 21.2956 3 20.5V12.5C3 11.9477 3.44772 11.5 4 11.5Z" fill="black"/>
<path fill-rule="evenodd" clip-rule="evenodd" d="M11.2929 1.79289C11.6834 1.40237 12.3166 1.40237 12.7071 1.79289L16.7071 5.79289C17.0976 6.18342 17.0976 6.81658 16.7071 7.20711C16.3166 7.59763 15.6834 7.59763 15.2929 7.20711L12 3.91421L8.70711 7.20711C8.31658 7.59763 7.68342 7.59763 7.29289 7.20711C6.90237 6.81658 6.90237 6.18342 7.29289 5.79289L11.2929 1.79289Z" fill="black"/>
<path fill-rule="evenodd" clip-rule="evenodd" d="M12 1.5C12.5523 1.5 13 1.94772 13 2.5V15.5C13 16.0523 12.5523 16.5 12 16.5C11.4477 16.5 11 16.0523 11 15.5V2.5C11 1.94772 11.4477 1.5 12 1.5Z" fill="black"/>
</svg>
