<svg width="20" height="21" viewBox="0 0 20 21" fill="none" xmlns="http://www.w3.org/2000/svg">
<path d="M10 9.75C11.3261 9.75 12.5979 10.2768 13.5355 11.2145C14.4732 12.1521 15 13.4239 15 14.75V20.75H13V14.75C13 13.9848 12.7077 13.2485 12.1827 12.6917C11.6578 12.135 10.9399 11.7999 10.176 11.755L10 11.75C9.23479 11.75 8.49849 12.0423 7.94174 12.5673C7.38499 13.0922 7.04989 13.8101 7.005 14.574L7 14.75V20.75H5V14.75C5 13.4239 5.52678 12.1521 6.46447 11.2145C7.40215 10.2768 8.67392 9.75 10 9.75ZM3.5 12.75C3.779 12.75 4.05 12.783 4.31 12.844C4.13902 13.353 4.03777 13.8828 4.009 14.419L4 14.75V14.836C3.88505 14.7949 3.76549 14.768 3.644 14.756L3.5 14.75C3.12712 14.75 2.76761 14.8889 2.49158 15.1396C2.21555 15.3903 2.0428 15.7348 2.007 16.106L2 16.25V20.75H0V16.25C0 15.3217 0.368749 14.4315 1.02513 13.7751C1.6815 13.1187 2.57174 12.75 3.5 12.75ZM16.5 12.75C17.4283 12.75 18.3185 13.1187 18.9749 13.7751C19.6313 14.4315 20 15.3217 20 16.25V20.75H18V16.25C18 15.8771 17.8611 15.5176 17.6104 15.2416C17.3597 14.9656 17.0152 14.7928 16.644 14.757L16.5 14.75C16.325 14.75 16.157 14.78 16 14.835V14.75C16 14.084 15.892 13.444 15.691 12.846C15.95 12.783 16.221 12.75 16.5 12.75ZM3.5 6.75C4.16304 6.75 4.79893 7.01339 5.26777 7.48223C5.73661 7.95107 6 8.58696 6 9.25C6 9.91304 5.73661 10.5489 5.26777 11.0178C4.79893 11.4866 4.16304 11.75 3.5 11.75C2.83696 11.75 2.20107 11.4866 1.73223 11.0178C1.26339 10.5489 1 9.91304 1 9.25C1 8.58696 1.26339 7.95107 1.73223 7.48223C2.20107 7.01339 2.83696 6.75 3.5 6.75ZM16.5 6.75C17.163 6.75 17.7989 7.01339 18.2678 7.48223C18.7366 7.95107 19 8.58696 19 9.25C19 9.91304 18.7366 10.5489 18.2678 11.0178C17.7989 11.4866 17.163 11.75 16.5 11.75C15.837 11.75 15.2011 11.4866 14.7322 11.0178C14.2634 10.5489 14 9.91304 14 9.25C14 8.58696 14.2634 7.95107 14.7322 7.48223C15.2011 7.01339 15.837 6.75 16.5 6.75ZM3.5 8.75C3.36739 8.75 3.24021 8.80268 3.14645 8.89645C3.05268 8.99021 3 9.11739 3 9.25C3 9.38261 3.05268 9.50979 3.14645 9.60355C3.24021 9.69732 3.36739 9.75 3.5 9.75C3.63261 9.75 3.75979 9.69732 3.85355 9.60355C3.94732 9.50979 4 9.38261 4 9.25C4 9.11739 3.94732 8.99021 3.85355 8.89645C3.75979 8.80268 3.63261 8.75 3.5 8.75ZM16.5 8.75C16.3674 8.75 16.2402 8.80268 16.1464 8.89645C16.0527 8.99021 16 9.11739 16 9.25C16 9.38261 16.0527 9.50979 16.1464 9.60355C16.2402 9.69732 16.3674 9.75 16.5 9.75C16.6326 9.75 16.7598 9.69732 16.8536 9.60355C16.9473 9.50979 17 9.38261 17 9.25C17 9.11739 16.9473 8.99021 16.8536 8.89645C16.7598 8.80268 16.6326 8.75 16.5 8.75ZM10 0.75C11.0609 0.75 12.0783 1.17143 12.8284 1.92157C13.5786 2.67172 14 3.68913 14 4.75C14 5.81087 13.5786 6.82828 12.8284 7.57843C12.0783 8.32857 11.0609 8.75 10 8.75C8.93913 8.75 7.92172 8.32857 7.17157 7.57843C6.42143 6.82828 6 5.81087 6 4.75C6 3.68913 6.42143 2.67172 7.17157 1.92157C7.92172 1.17143 8.93913 0.75 10 0.75ZM10 2.75C9.46957 2.75 8.96086 2.96071 8.58579 3.33579C8.21071 3.71086 8 4.21957 8 4.75C8 5.28043 8.21071 5.78914 8.58579 6.16421C8.96086 6.53929 9.46957 6.75 10 6.75C10.5304 6.75 11.0391 6.53929 11.4142 6.16421C11.7893 5.78914 12 5.28043 12 4.75C12 4.21957 11.7893 3.71086 11.4142 3.33579C11.0391 2.96071 10.5304 2.75 10 2.75Z" fill="#FF7A00"/>
</svg>
