<svg width="20" height="21" viewBox="0 0 20 21" fill="none" xmlns="http://www.w3.org/2000/svg">
<path d="M10 9.5C11.3261 9.5 12.5979 10.0268 13.5355 10.9645C14.4732 11.9021 15 13.1739 15 14.5V20.5H13V14.5C13 13.7348 12.7077 12.9985 12.1827 12.4417C11.6578 11.885 10.9399 11.5499 10.176 11.505L10 11.5C9.23479 11.5 8.49849 11.7923 7.94174 12.3173C7.38499 12.8422 7.04989 13.5601 7.005 14.324L7 14.5V20.5H5V14.5C5 13.1739 5.52678 11.9021 6.46447 10.9645C7.40215 10.0268 8.67392 9.5 10 9.5ZM3.5 12.5C3.779 12.5 4.05 12.533 4.31 12.594C4.13902 13.103 4.03777 13.6328 4.009 14.169L4 14.5V14.586C3.88505 14.5449 3.76549 14.518 3.644 14.506L3.5 14.5C3.12712 14.5 2.76761 14.6389 2.49158 14.8896C2.21555 15.1403 2.0428 15.4848 2.007 15.856L2 16V20.5H0V16C0 15.0717 0.368749 14.1815 1.02513 13.5251C1.6815 12.8687 2.57174 12.5 3.5 12.5ZM16.5 12.5C17.4283 12.5 18.3185 12.8687 18.9749 13.5251C19.6313 14.1815 20 15.0717 20 16V20.5H18V16C18 15.6271 17.8611 15.2676 17.6104 14.9916C17.3597 14.7156 17.0152 14.5428 16.644 14.507L16.5 14.5C16.325 14.5 16.157 14.53 16 14.585V14.5C16 13.834 15.892 13.194 15.691 12.596C15.95 12.533 16.221 12.5 16.5 12.5ZM3.5 6.5C4.16304 6.5 4.79893 6.76339 5.26777 7.23223C5.73661 7.70107 6 8.33696 6 9C6 9.66304 5.73661 10.2989 5.26777 10.7678C4.79893 11.2366 4.16304 11.5 3.5 11.5C2.83696 11.5 2.20107 11.2366 1.73223 10.7678C1.26339 10.2989 1 9.66304 1 9C1 8.33696 1.26339 7.70107 1.73223 7.23223C2.20107 6.76339 2.83696 6.5 3.5 6.5ZM16.5 6.5C17.163 6.5 17.7989 6.76339 18.2678 7.23223C18.7366 7.70107 19 8.33696 19 9C19 9.66304 18.7366 10.2989 18.2678 10.7678C17.7989 11.2366 17.163 11.5 16.5 11.5C15.837 11.5 15.2011 11.2366 14.7322 10.7678C14.2634 10.2989 14 9.66304 14 9C14 8.33696 14.2634 7.70107 14.7322 7.23223C15.2011 6.76339 15.837 6.5 16.5 6.5ZM3.5 8.5C3.36739 8.5 3.24021 8.55268 3.14645 8.64645C3.05268 8.74021 3 8.86739 3 9C3 9.13261 3.05268 9.25979 3.14645 9.35355C3.24021 9.44732 3.36739 9.5 3.5 9.5C3.63261 9.5 3.75979 9.44732 3.85355 9.35355C3.94732 9.25979 4 9.13261 4 9C4 8.86739 3.94732 8.74021 3.85355 8.64645C3.75979 8.55268 3.63261 8.5 3.5 8.5ZM16.5 8.5C16.3674 8.5 16.2402 8.55268 16.1464 8.64645C16.0527 8.74021 16 8.86739 16 9C16 9.13261 16.0527 9.25979 16.1464 9.35355C16.2402 9.44732 16.3674 9.5 16.5 9.5C16.6326 9.5 16.7598 9.44732 16.8536 9.35355C16.9473 9.25979 17 9.13261 17 9C17 8.86739 16.9473 8.74021 16.8536 8.64645C16.7598 8.55268 16.6326 8.5 16.5 8.5ZM10 0.5C11.0609 0.5 12.0783 0.921427 12.8284 1.67157C13.5786 2.42172 14 3.43913 14 4.5C14 5.56087 13.5786 6.57828 12.8284 7.32843C12.0783 8.07857 11.0609 8.5 10 8.5C8.93913 8.5 7.92172 8.07857 7.17157 7.32843C6.42143 6.57828 6 5.56087 6 4.5C6 3.43913 6.42143 2.42172 7.17157 1.67157C7.92172 0.921427 8.93913 0.5 10 0.5ZM10 2.5C9.46957 2.5 8.96086 2.71071 8.58579 3.08579C8.21071 3.46086 8 3.96957 8 4.5C8 5.03043 8.21071 5.53914 8.58579 5.91421C8.96086 6.28929 9.46957 6.5 10 6.5C10.5304 6.5 11.0391 6.28929 11.4142 5.91421C11.7893 5.53914 12 5.03043 12 4.5C12 3.96957 11.7893 3.46086 11.4142 3.08579C11.0391 2.71071 10.5304 2.5 10 2.5Z" fill="#22D07D"/>
</svg>
