<svg width="55" height="55" viewBox="0 0 55 55" fill="none" xmlns="http://www.w3.org/2000/svg">
<circle cx="27.5" cy="27.5" r="27.5" fill="#28B2FF" fill-opacity="0.3"/>
<g clip-path="url(#clip0_1028_800)">
<path d="M31.2995 21.5501C30.5395 21.55 29.8098 21.8482 29.2674 22.3807C28.7251 22.9131 28.4134 23.6372 28.3995 24.3971L28.3715 25.9721C28.3699 26.0567 28.3504 26.1399 28.3143 26.2164C28.2782 26.2929 28.2264 26.3609 28.1622 26.416C28.098 26.471 28.0228 26.5119 27.9417 26.5359C27.8606 26.5599 27.7754 26.5664 27.6915 26.5551L26.1305 26.3431C24.0765 26.0631 22.1085 25.1171 20.2205 23.5441C19.6225 26.8541 20.7905 29.1471 23.6035 30.9161L25.3505 32.0141C25.4335 32.0663 25.5025 32.138 25.5514 32.223C25.6003 32.308 25.6276 32.4036 25.6309 32.5016C25.6343 32.5996 25.6136 32.6969 25.5706 32.785C25.5277 32.8731 25.4638 32.9494 25.3845 33.0071L23.7925 34.1701C24.7395 34.2291 25.6385 34.1871 26.3845 34.0391C31.1025 33.0971 34.2395 29.5471 34.2395 23.6911C34.2395 23.2131 33.2275 21.5501 31.2995 21.5501ZM26.3995 24.3601C26.417 23.3962 26.7184 22.4588 27.2661 21.6653C27.8138 20.8719 28.5833 20.2576 29.4784 19.8995C30.3736 19.5413 31.3544 19.4552 32.2983 19.6519C33.2421 19.8485 34.107 20.3193 34.7845 21.0051C35.4955 21.0001 36.1005 21.1801 37.4535 20.3601C37.1185 22.0001 36.9535 22.7121 36.2395 23.6911C36.2395 31.3331 31.5425 35.0491 26.7765 36.0001C23.5085 36.6521 18.7565 35.5811 17.3945 34.1591C18.0885 34.1051 20.9085 33.8021 22.5385 32.6091C21.1595 31.7001 15.6705 28.4701 19.2775 19.7861C20.9705 21.7631 22.6875 23.1091 24.4275 23.8231C25.5855 24.2981 25.8695 24.2881 26.4005 24.3611L26.3995 24.3601Z" fill="#28B2FF"/>
</g>
<defs>
<clipPath id="clip0_1028_800">
<rect width="24" height="24" fill="white" transform="translate(16 16)"/>
</clipPath>
</defs>
</svg>
