<svg width="60" height="50" viewBox="0 0 60 50" fill="none" xmlns="http://www.w3.org/2000/svg">
<path d="M41.2626 6.41852C39.0142 6.41814 36.8554 7.30046 35.251 8.87561C33.6465 10.4508 32.7245 12.5928 32.6834 14.8409L32.6006 19.5003C32.5957 19.7504 32.538 19.9968 32.4313 20.2231C32.3246 20.4494 32.1712 20.6506 31.9812 20.8134C31.7913 20.9763 31.569 21.0971 31.3291 21.1681C31.0891 21.239 30.8369 21.2584 30.5889 21.225L25.971 20.5978C19.8945 19.7695 14.0725 16.9709 8.4872 12.3174C6.71812 22.1095 10.1735 28.893 18.4952 34.1263L23.6635 37.3745C23.909 37.5288 24.113 37.741 24.2576 37.9924C24.4022 38.2438 24.483 38.5268 24.493 38.8167C24.5029 39.1065 24.4416 39.3944 24.3146 39.6551C24.1875 39.9158 23.9985 40.1414 23.764 40.3121L19.0544 43.7527C21.8559 43.9272 24.5155 43.803 26.7224 43.3651C40.6798 40.5784 49.9601 30.0763 49.9601 12.7523C49.9601 11.3382 46.9662 6.41852 41.2626 6.41852ZM26.7667 14.7314C26.8184 11.8798 27.7101 9.10667 29.3303 6.75938C30.9505 4.4121 33.2272 2.59493 35.8752 1.5354C38.5233 0.475861 41.425 0.221046 44.2172 0.802855C47.0094 1.38466 49.5679 2.77724 51.5724 4.80623C53.6757 4.79144 55.4655 5.32394 59.4682 2.8981C58.4771 7.74977 57.989 9.8561 55.8767 12.7523C55.8767 35.3599 41.9815 46.3531 27.882 49.1664C18.2142 51.0953 4.1562 47.9269 0.126953 43.7201C2.18004 43.5604 10.5225 42.664 15.3446 39.1347C11.2651 36.4456 -4.97321 26.8902 5.6975 1.20002C10.706 7.04864 15.7854 11.0306 20.9329 13.1428C24.3587 14.548 25.1988 14.5184 26.7697 14.7344L26.7667 14.7314Z" fill="black"/>
</svg>
