<svg width="24" height="25" viewBox="0 0 24 25" fill="none" xmlns="http://www.w3.org/2000/svg">
<path fill-rule="evenodd" clip-rule="evenodd" d="M6.29289 14.7929C6.68342 14.4024 7.31658 14.4024 7.70711 14.7929L12 19.0858L16.2929 14.7929C16.6834 14.4024 17.3166 14.4024 17.7071 14.7929C18.0976 15.1834 18.0976 15.8166 17.7071 16.2071L12.7071 21.2071C12.3166 21.5976 11.6834 21.5976 11.2929 21.2071L6.29289 16.2071C5.90237 15.8166 5.90237 15.1834 6.29289 14.7929Z" fill="black"/>
<path fill-rule="evenodd" clip-rule="evenodd" d="M11.2929 3.79289C11.6834 3.40237 12.3166 3.40237 12.7071 3.79289L17.7071 8.79289C18.0976 9.18342 18.0976 9.81658 17.7071 10.2071C17.3166 10.5976 16.6834 10.5976 16.2929 10.2071L12 5.91421L7.70711 10.2071C7.31658 10.5976 6.68342 10.5976 6.29289 10.2071C5.90237 9.81658 5.90237 9.18342 6.29289 8.79289L11.2929 3.79289Z" fill="black"/>
</svg>
